<svg width="56" height="56" viewBox="0 0 56 56" fill="none" xmlns="http://www.w3.org/2000/svg">
<g>
<path d="M18.9699 36.9425H32.5237C32.9135 36.9425 33.2875 36.7876 33.5631 36.5119C33.8388 36.2363 33.9937 35.8624 33.9937 35.4725L39.1124 16.73C39.1124 16.5355 39.0738 16.3429 38.9989 16.1634C38.9239 15.9839 38.8141 15.821 38.6757 15.6843C38.5374 15.5476 38.3732 15.4397 38.1929 15.3668C38.0125 15.294 37.8194 15.2577 37.6249 15.26H15.4087C15.018 15.26 14.6432 15.4146 14.3661 15.69C14.0891 15.9654 13.9322 16.3393 13.9299 16.73L9.55493 35.4725C9.55493 35.8624 9.70981 36.2363 9.98548 36.5119C10.2612 36.7876 10.6351 36.9425 11.0249 36.9425H12.9324" stroke="currentColor" stroke-width="1.6"/>
<path d="M36.4525 36.9425H33.4163L37.7913 21.8138H44.9838C45.092 21.8135 45.1989 21.8369 45.2971 21.8822C45.3954 21.9276 45.4825 21.9938 45.5525 22.0763L48.685 27.5888C48.7973 27.7173 48.8594 27.8819 48.86 28.0525L45.9463 36.9425H42.7963" stroke="currentColor" stroke-width="1.6"/>
<path d="M16.0212 41.1863C17.814 41.1863 19.2674 39.7133 19.2674 37.8963C19.2674 36.0792 17.814 34.6063 16.0212 34.6063C14.2283 34.6063 12.7749 36.0792 12.7749 37.8963C12.7749 39.7133 14.2283 41.1863 16.0212 41.1863Z" stroke="currentColor" stroke-width="1.6"/>
<path d="M39.6813 41.1863C41.4742 41.1863 42.9276 39.7133 42.9276 37.8963C42.9276 36.0792 41.4742 34.6063 39.6813 34.6063C37.8885 34.6063 36.4351 36.0792 36.4351 37.8963C36.4351 39.7133 37.8885 41.1863 39.6813 41.1863Z" stroke="currentColor" stroke-width="1.6"/>
<path d="M18.5413 29.3125H2.80884M20.3438 19.565H6.01134H20.3438ZM17.5176 24.15H7.39384H17.5176Z" stroke="currentColor" stroke-width="1.6" stroke-linecap="round"/>
</g>
</svg>
