<?xml version="1.0" encoding="UTF-8" standalone="no"?>
<svg
   xmlns:dc="http://purl.org/dc/elements/1.1/"
   xmlns:cc="http://creativecommons.org/ns#"
   xmlns:rdf="http://www.w3.org/1999/02/22-rdf-syntax-ns#"
   xmlns:svg="http://www.w3.org/2000/svg"
   xmlns="http://www.w3.org/2000/svg"
   xmlns:sodipodi="http://sodipodi.sourceforge.net/DTD/sodipodi-0.dtd"
   xmlns:inkscape="http://www.inkscape.org/namespaces/inkscape"
   width="58"
   height="58"
   viewBox="0 0 58 58"
   fill="none"
   version="1.1"
   id="svg1432"
   sodipodi:docname="service.svg"
   inkscape:version="0.92.3 (2405546, 2018-03-11)">
  <path
     style="fill:currentColor"
     d="m 22.67187,43.369144 c 0.298996,0 0.541016,0.240533 0.541016,0.542968 0,0.302436 -0.241982,0.544922 -0.541016,0.544922 -0.299034,0 -0.539063,-0.242486 -0.539063,-0.544922 0,-0.302435 0.240067,-0.542968 0.539063,-0.542968 z m 0,-1.0293 c -0.861949,0 -1.564453,0.708051 -1.564453,1.572265 0,0.864133 0.702504,1.572266 1.564453,1.572266 0.861949,0 1.566406,-0.708133 1.566406,-1.572266 0,-0.864214 -0.704457,-1.572265 -1.566406,-1.572265 z m 15.142578,-9.548828 h 5.289063 v 11.751953 c 0,0.935908 -0.381749,1.799157 -1.03711,2.373047 -0.558067,0.489145 -1.239783,0.696395 -1.9375,0.601562 -1.299242,-0.181013 -2.314453,-1.489283 -2.314453,-3.078125 z m 2.105469,-14.808594 h 1.078125 v 13.251953 h -1.078125 z m -0.300781,-6.875 h 1.71289 l 0.900391,4.740234 -0.667969,0.576172 H 39.486323 L 38.722651,15.824219 Z M 38.976557,9.5488281 c -0.370478,0 -0.692373,0.2675502 -0.761718,0.6328129 l -1.105469,5.816406 c -0.05492,0.286653 0.0553,0.582316 0.285156,0.761719 l 0.972657,0.763672 v 13.710937 h -1.330079 c -0.426395,0 -0.77539,0.352723 -0.77539,0.779297 v 12.425781 c 0,2.332774 1.555396,4.329586 3.654297,4.621094 0.182056,0.02526 0.363229,0.03906 0.544922,0.03906 0.955781,0 1.875873,-0.35208 2.626953,-1.009765 0.998705,-0.874676 1.568359,-2.168621 1.568359,-3.546875 V 32.013672 c 0,-0.426517 -0.348942,-0.779297 -0.775391,-0.779297 H 42.550781 V 17.626953 l 1.035157,-0.890625 C 43.797099,16.554659 43.895663,16.273829 43.84375,16 L 42.736328,10.181641 C 42.667402,9.8154815 42.345432,9.5488281 41.974609,9.5488281 Z M 26.869136,10.947266 c 2.189212,1.428384 3.581084,3.853161 3.580078,6.535156 5.81e-4,3.105744 -1.82991,5.91888 -4.666016,7.167969 -0.282314,0.123982 -0.464844,0.404478 -0.464844,0.71289 v 19.652344 c 0,1.44492 -1.165551,2.613281 -2.601562,2.613281 h -0.08789 c -1.435902,0 -2.601562,-1.168477 -2.601562,-2.613281 v -19.65625 c 0,-0.305969 -0.179318,-0.58587 -0.458985,-0.710937 -2.723448,-1.218658 -4.555473,-3.9165 -4.666015,-6.863282 -0.105643,-2.814107 1.286168,-5.35158 3.572265,-6.835937 v 5.787109 c 0,0.894553 0.351201,1.741564 0.980469,2.375 0.629804,0.634009 1.470592,0.987742 2.361328,0.988281 l 1.710938,-0.002 c 0.891292,0 1.73671,-0.351537 2.367187,-0.986328 0.630139,-0.633806 0.975256,-1.480353 0.97461,-2.375 z m -7.55273,-2.1308598 c -0.126111,-0.010595 -0.255772,0.00941 -0.376953,0.0625 -3.538638,1.5569228 -5.734342,5.0805328 -5.587891,8.9648438 0.125575,3.367268 2.125134,6.430769 5.123047,7.980469 v 19.189453 c 0,2.297983 1.865319,4.173828 4.154297,4.173828 h 0.08594 c 2.28894,0 4.154297,-1.874283 4.154297,-4.171875 V 25.832031 C 29.995014,24.238802 32.000505,21.027548 32,17.482422 32.001,13.752943 29.80566,10.374686 26.40625,8.8789062 h -0.002 c -0.239849,-0.1050106 -0.518184,-0.082507 -0.736328,0.0625 -0.218614,0.1436477 -0.34961,0.3881801 -0.34961,0.6503907 v 7.1445311 c 4.41e-4,0.483268 -0.186554,0.934441 -0.52539,1.275391 -0.340032,0.342587 -0.78614,0.529297 -1.265625,0.529297 h -1.708985 -0.002 C 21.338931,18.540088 20.892373,18.353565 20.55264,18.011719 20.212818,17.670223 20.02725,17.219892 20.02725,16.736328 V 9.5917969 c 0,-0.2622106 -0.132828,-0.5067598 -0.351563,-0.6503907 -0.108614,-0.071246 -0.232862,-0.1143563 -0.359375,-0.125 z" />
</svg>
