<svg width="56" height="56" viewBox="0 0 56 56" fill="none" xmlns="http://www.w3.org/2000/svg">
<g>
<path d="M17.6724 37.3061L22.286 34.328C22.4344 34.2331 22.5998 34.1697 22.7725 34.1416C22.9452 34.1135 23.1217 34.1212 23.2915 34.1642C24.9299 34.6009 29.8569 35.9838 31.6727 36.6389C33.0391 37.1302 33.5891 38.5131 33.0391 39.4289C32.2938 40.642 31.1582 40.5207 30.3419 40.2842C30.2305 40.2528 30.1217 40.2122 30.0166 40.1629L26.7871 38.7557M17.6251 46.0159L13.2422 39.253C13.1387 39.0912 13.1017 38.8939 13.1394 38.7041C13.1771 38.5144 13.2863 38.3476 13.4433 38.2401L16.2115 36.4205C16.366 36.3173 16.5538 36.2798 16.7348 36.316C16.9159 36.3522 17.0761 36.4593 17.1815 36.6146L21.6531 43.2865C21.7596 43.4474 21.7996 43.6451 21.7641 43.8362C21.7286 44.0272 21.6206 44.196 21.4638 44.3055L18.6129 46.2646C18.5325 46.3161 18.4428 46.3505 18.3492 46.3659C18.2556 46.3812 18.1599 46.3772 18.0678 46.354C17.9757 46.3308 17.8891 46.289 17.8131 46.2309C17.7371 46.1728 17.6731 46.0997 17.6251 46.0159V46.0159Z" stroke="currentColor" stroke-width="1.6" stroke-linecap="round"/>
<path d="M21 42.4029L22.5706 41.6399L31.4583 43.7304C31.5496 43.7513 31.6451 43.7555 31.7385 43.7429C31.8319 43.7303 31.9211 43.7011 32.0003 43.6572C33.2321 42.9726 38.5967 39.9622 41.239 38.3787C41.4532 38.2778 41.6346 38.1334 41.7667 37.9583C41.8988 37.7832 41.9775 37.583 41.9959 37.3757C42.0142 37.1684 41.9715 36.9605 41.8716 36.7707C41.7718 36.5808 41.6179 36.415 41.4238 36.2882C41.1156 36.054 40.7262 35.9112 40.3141 35.881C39.9021 35.8508 39.4896 35.935 39.1387 36.1209C38.2149 36.5599 35.6465 38.1749 35.6465 38.1749" stroke="currentColor" stroke-width="1.6" stroke-linecap="round"/>
<path d="M33.5635 9.66263L24.7958 13.4519C24.7079 13.4894 24.6328 13.5532 24.5801 13.6351C24.5274 13.7171 24.4995 13.8135 24.5 13.912V21.9903C24.5003 23.9528 24.9925 25.8816 25.9283 27.5875C26.8641 29.2933 28.2113 30.7177 29.8379 31.7208L33.74 34.125L37.5848 31.7258C39.1983 30.7202 40.5335 29.2989 41.4605 27.5999C42.3875 25.9008 42.8748 23.982 42.875 22.0299V13.447C42.8753 13.3459 42.8458 13.2472 42.7903 13.164C42.7349 13.0809 42.6562 13.0174 42.5649 12.982L33.9165 9.65768C33.8025 9.61246 33.6762 9.61423 33.5635 9.66263V9.66263Z" stroke="currentColor" stroke-width="1.6"/>
<path d="M28.875 22.0986L32.355 24.5L38.5 16.625" stroke="currentColor" stroke-width="1.6"/>
</g>
</svg>
