<svg width="110" height="110" viewBox="0 0 110 110" fill="none" xmlns="http://www.w3.org/2000/svg"><path d="M30 45.5c0 .552-1.343 1-3 1s-3-.448-3-1m6 0c0-.552-1.343-1-3-1s-3 .448-3 1m6 0V50m-6-4.5V53c.333.333 1.4 1 3 1s2.667-.667 3-1v-3m16-11c0 .552-1.343 1-3 1s-3-.448-3-1m6 0c0-.552-1.343-1-3-1s-3 .448-3 1m6 0v6.5c-.333.333-1.4 1-3 1s-2.667-.667-3-1v-1m0-5.5v5.5M30 50c.5 0 5.5 1 10-5.5M63 31c0 .552-1.343 1-3 1s-3-.448-3-1m6 0c0-.552-1.343-1-3-1s-3 .448-3 1m6 0v4.5M57 31v7.5c.333.333 1.4 1 3 1s2.667-.667 3-1v-3m16-11c0 .552-1.343 1-3 1s-3-.448-3-1m6 0c0-.552-1.343-1-3-1s-3 .448-3 1m6 0V31c-.333.333-1.4 1-3 1s-2.667-.667-3-1v-1m0-5.5V30m-10 5.5c.5 0 5.5 1 10-5.5m21-13c0 .552-1.343 1-3 1s-3-.448-3-1m6 0c0-.552-1.343-1-3-1s-3 .448-3 1m6 0v4.5M88 17v7.5c.333.333 1.4 1 3 1s2.667-.667 3-1v-3m16-11c0 .552-1.343 1-3 1s-3-.448-3-1m6 0c0-.552-1.343-1-3-1s-3 .448-3 1m6 0V17c-.333.333-1.4 1-3 1s-2.667-.667-3-1v-1m0-5.5V16m-10 5.5c.5 0 5.5 1 10-5.5M42 53c0 .552-1.343 1-3 1s-3-.448-3-1m6 0c0-.552-1.343-1-3-1s-3 .448-3 1m6 0v4.5M36 53v7.5c.333.333 1.4 1 3 1s2.667-.667 3-1v-3m16-11c0 .552-1.343 1-3 1s-3-.448-3-1m6 0c0-.552-1.343-1-3-1s-3 .448-3 1m6 0V53c-.333.333-1.4 1-3 1s-2.667-.667-3-1v-1m0-5.5V52m-10 5.5c.5 0 5.5 1 10-5.5m23-13.5c0 .552-1.343 1-3 1s-3-.448-3-1m6 0c0-.552-1.343-1-3-1s-3 .448-3 1m6 0V43m-6-4.5V46c.333.333 1.4 1 3 1s2.667-.667 3-1v-3m16-11c0 .552-1.343 1-3 1s-3-.448-3-1m6 0c0-.552-1.343-1-3-1s-3 .448-3 1m6 0v6.5c-.333.333-1.4 1-3 1s-2.667-.667-3-1v-1m0-5.5v5.5M75 43c.5 0 5.5 1 10-5.5m21-13c0 .552-1.343 1-3 1s-3-.448-3-1m6 0c0-.552-1.343-1-3-1s-3 .448-3 1m6 0V29m-6-4.5V32c.333.333 1.4 1 3 1s2.667-.667 3-1v-3m16-11c0 .552-1.343 1-3 1s-3-.448-3-1m6 0c0-.552-1.343-1-3-1s-3 .448-3 1m6 0v6.5c-.333.333-1.4 1-3 1s-2.667-.667-3-1v-1m0-5.5v5.5M106 29c.5 0 5.5 1 10-5.5M55 60c0 .552-1.343 1-3 1s-3-.448-3-1m6 0c0-.552-1.343-1-3-1s-3 .448-3 1m6 0v4.5M49 60v7.5c.333.333 1.4 1 3 1s2.667-.667 3-1v-3m16-11c0 .552-1.343 1-3 1s-3-.448-3-1m6 0c0-.552-1.343-1-3-1s-3 .448-3 1m6 0V60c-.333.333-1.4 1-3 1s-2.667-.667-3-1v-1m0-5.5V59m-10 5.5c.5 0 5.5 1 10-5.5m23-13.5c0 .552-1.343 1-3 1s-3-.448-3-1m6 0c0-.552-1.343-1-3-1s-3 .448-3 1m6 0V50m-6-4.5V53c.333.333 1.4 1 3 1s2.667-.667 3-1v-3m16-11c0 .552-1.343 1-3 1s-3-.448-3-1m6 0c0-.552-1.343-1-3-1s-3 .448-3 1m6 0v6.5c-.333.333-1.4 1-3 1s-2.667-.667-3-1v-1m0-5.5v5.5M88 50c.5 0 5.5 1 10-5.5M68 68c0 .552-1.343 1-3 1s-3-.448-3-1m6 0c0-.552-1.343-1-3-1s-3 .448-3 1m6 0v4.5M62 68v7.5c.333.333 1.4 1 3 1s2.667-.667 3-1v-3m16-11c0 .552-1.343 1-3 1s-3-.448-3-1m6 0c0-.552-1.343-1-3-1s-3 .448-3 1m6 0V68c-.333.333-1.4 1-3 1s-2.667-.667-3-1v-1m0-5.5V67m-10 5.5c.5 0 5.5 1 10-5.5m23-13.5c0 .552-1.343 1-3 1s-3-.448-3-1m6 0c0-.552-1.343-1-3-1s-3 .448-3 1m6 0V58m-6-4.5V61c.333.333 1.4 1 3 1s2.667-.667 3-1v-3m16-11c0 .552-1.343 1-3 1s-3-.448-3-1m6 0c0-.552-1.343-1-3-1s-3 .448-3 1m6 0v6.5c-.333.333-1.4 1-3 1s-2.667-.667-3-1v-1m0-5.5v5.5M101 58c.5 0 5.5 1 10-5.5M82 76c0 .552-1.343 1-3 1s-3-.448-3-1m6 0c0-.552-1.343-1-3-1s-3 .448-3 1m6 0v4.5M76 76v7.5c.333.333 1.4 1 3 1s2.667-.667 3-1v-3m16-11c0 .552-1.343 1-3 1s-3-.448-3-1m6 0c0-.552-1.343-1-3-1s-3 .448-3 1m6 0V76c-.333.333-1.4 1-3 1s-2.667-.667-3-1v-1m0-5.5V75m-10 5.5c.5 0 5.5 1 10-5.5m23-13.5c0 .552-1.343 1-3 1s-3-.448-3-1m6 0c0-.552-1.343-1-3-1s-3 .448-3 1m6 0V66m-6-4.5V69c.333.333 1.4 1 3 1s2.667-.667 3-1v-3m16-11c0 .552-1.343 1-3 1s-3-.448-3-1m6 0c0-.552-1.343-1-3-1s-3 .448-3 1m6 0v6.5c-.333.333-1.4 1-3 1s-2.667-.667-3-1v-1m0-5.5v5.5M115 66c.5 0 5.5 1 10-5.5" stroke="#414549"/><path d="M1 122V48.939l3-1.233M79 97.5l103-53L108 1c-.781 0-60.958 29.016-104 46.706M79 97.5V122m0-24.5L77 93C51.833 77.333 4.4 48.292 4 47.706" stroke="#414549"/><path d="M1 122V48.939l3-1.233C47.042 30.015 107.219 1 108 1l74 43.5" stroke="#414549" stroke-width="1.6"/></svg>