<svg width="191" height="202" viewBox="0 0 191 202" fill="none" xmlns="http://www.w3.org/2000/svg"><path d="M192 63c-.192-.096-4.516-2.547-11.473-6.5M59.5 12L83 1l18 10.249M59.5 12L50 6 12 29.5v3M59.5 12l20 10.5L101 11.249M12 40L1 46.5M12 40l59 32.5h4.5l22 13.5M12 40v-7.5m-11 14V54l5 3M1 46.5l187 106 3.5-2M6 57v64l2 4M6 57l182 102.5M8 125l-2.5 3m2.5-3l146 79M5.5 128l-1 6.5L17 148l99.5 56m-111-76L17 140l115 64M101 11.249c17.04 9.701 37.073 21.105 54 30.735M188 159.5l6-3.5m-6 3.5V204m-7.473-147.5l-59.027 39m59.027-39c-6.577-3.737-15.508-8.816-25.527-14.516M121.5 95.5v7L188 139m-66.5-43.5L188 132m0 7l3.5-2m-3.5 2v-7m0 0l3.5-2.5M155 41.984V49.5L97.5 86M155 41.984L97.5 78.5m0 7.5v-7.5m0 0L75.5 65H71L12 32.5" stroke="#414549"/><path d="M192 63c-.192-.096-4.516-2.547-11.473-6.5-6.577-3.737-15.508-8.816-25.527-14.516A218261.105 218261.105 0 0183 1L59.5 12 50 6 12 29.5V40L1 46.5V54l5 3v64l2 4-2.5 3-1 6.5L17 148l99.5 56" stroke="#414549" stroke-width="1.6"/><path d="M81.5 36.5c0 2.16-1.964 4-4.5 4s-4.5-1.84-4.5-4 1.964-4 4.5-4 4.5 1.84 4.5 4zm-30-19c0 2.12-2.14 4-5 4s-5-1.88-5-4 2.14-4 5-4 5 1.88 5 4zm36-3.5c0 1.146-.745 2.26-2.108 3.111C84.035 17.96 82.13 18.5 80 18.5c-2.13 0-4.035-.54-5.392-1.389C73.245 16.26 72.5 15.146 72.5 14c0-1.146.745-2.26 2.108-3.111C75.965 10.04 77.87 9.5 80 9.5c2.13 0 4.035.54 5.392 1.389C86.755 11.74 87.5 12.854 87.5 14zm30 42.5c0 2.16-1.964 4-4.5 4s-4.5-1.84-4.5-4 1.964-4 4.5-4 4.5 1.84 4.5 4zm26 15c0 2.12-2.14 4-5 4s-5-1.88-5-4 2.14-4 5-4 5 1.88 5 4zm31 20c0 2.12-2.14 4-5 4s-5-1.88-5-4 2.14-4 5-4 5 1.88 5 4z" stroke="#414549"/></svg>