<svg width="109" height="101" viewBox="0 0 109 101" fill="none" xmlns="http://www.w3.org/2000/svg"><path d="M4.5 101V52.5m0 0l93 52 20-12m-113-40l-3.5-2V44m0 0l96.5 55 20-11.5M1 44l23-14m9-.5c0-1.6-3-2-4.5-2-.303 0-.644.013-1 .044M33 29.5c0 1.6-3 2-4.5 2-1.667 0-4.5-.4-4.5-2m9 0v9c-.5.5-1.7 1.5-4.5 1.5s-4.167-1-4.5-1.5V30m0-.5v.5m0-.5c0-1.31 1.897-1.815 3.5-1.956M111 31.5c-.4 0-36.167-20-54-30l-26.5 16m0 0V26m0-8.5L50 28.4m61 34.1l-4-2.236M30.5 26l-3 1.544m3-1.544l13 7m0 0l6.5-4.6M43.5 33l-15 11M50 28.4l57 31.864M28.5 44v9L83 83.5M28.5 44c1.6.4 37 20.167 54.5 30m0 9.5l16.5-10M83 83.5V74m21.5-4c1.667 0 5 .4 5 2m-5-2c-1.667 0-5 .4-5 2m5-2l2.5-1m2.5 3c0 1.6-3.333 2-5 2-1.667 0-5-.4-5-2m10 0v8c-.667.833-2.6 2-5 2s-4.333-1.167-5-2v-6.5m0-1.5v1.5m7.5-13.236V69m0-8.736L83 74m24-5l5.5 3M13 44.5l4.5 2.5M92 88.5l4.5 2.5m-4.5.5l4.5-3" stroke="#414549" stroke-linecap="round" stroke-linejoin="round"/><path d="M4.5 101V52.5l-3.5-2V44l23-14v-.5c0-1.31 1.897-1.815 3.5-1.956l3-1.544v-8.5L57 1.5c17.833 10 53.6 30 54 30" stroke="#414549" stroke-width="1.6" stroke-linecap="round" stroke-linejoin="round"/></svg>