<svg xmlns:svg="http://www.w3.org/2000/svg" xmlns="http://www.w3.org/2000/svg" width="303" height="123" viewBox="0 0 303 123" version="1.1" id="svg1046" fill="none"><path d="M1 23.5L30.07 1.327a1 1 0 01.94-.148L228 70.5M1 23.5V29m0-5.5c10.29 3.623 22.211 7.816 35 12.31M228 70.5l-27.928 21.187c-.696.527-1.531.707-2.363.444C186.144 88.47 100.152 58.353 36 35.81M228 70.5l1.5 5.5m0 0l-28.797 21.244a4.001 4.001 0 01-3.7.555L1 29m228.5 47v5.5M1 29v5m0 0l18 6.318M1 34v16.5L7.5 54v78.5m191.5-29l30.5-22m-30.5 22l-12.5-4.388M199 103.5v16.25m30.5-38.25V88M19 40.318V144m0-103.682l167.5 58.794m0 0V136m43-48l4 2.5m-4-2.5L200 110l6 1m27.5-20.5v10l-4 3m4-13L206 111m23.5-7.5V133m0-29.5L206 121m0-10v10m0 0l-7-1.25m7 1.25v15m-7 0v-16.25M36 35.81c0-.81 10.5-14.994 29.5-22.494M86.57 26.23l80.993 28.558c1.488.525 1.811 2.487.568 3.46l-13.903 10.898a4 4 0 01-3.798.624L69.437 41.212c-1.488-.525-1.81-2.487-.568-3.46l13.903-10.898a4 4 0 013.798-.624z" id="path1030" stroke="#414549"/><path d="M7.5 132.5V54L1 50.5v-27L30.07 1.327a1 1 0 01.94-.148L228 70.5l1.5 5.5v12l4 2.5v10l-4 3V133" id="path1032" stroke="#414549" stroke-width="1.6"/><path d="M116.5 52c0 .26-.224.632-.895.967-.641.32-1.561.533-2.605.533s-1.964-.213-2.605-.533c-.671-.335-.895-.706-.895-.967 0-.26.224-.632.895-.967.641-.32 1.561-.533 2.605-.533s1.964.213 2.605.533c.671.335.895.706.895.967z" id="path1034" stroke="#414549"/><path d="M79.5 39c0 .26-.225.632-.895.967-.641.32-1.561.533-2.605.533s-1.964-.213-2.605-.533c-.67-.335-.895-.706-.895-.967 0-.26.225-.632.895-.967.641-.32 1.561-.533 2.605-.533s1.964.213 2.605.533c.67.335.895.706.895.967z" id="path1036" stroke="#414549"/><path d="M152.5 65c0 .26-.224.632-.895.967-.641.32-1.561.533-2.605.533s-1.964-.213-2.605-.533c-.671-.335-.895-.706-.895-.967 0-.26.224-.632.895-.967.641-.32 1.561-.533 2.605-.533s1.964.213 2.605.533c.671.335.895.706.895.967z" id="path1038" stroke="#414549"/><path d="M127.5 44c0 .26-.224.632-.895.967-.641.32-1.561.533-2.605.533s-1.964-.213-2.605-.533c-.671-.335-.895-.706-.895-.967 0-.26.224-.632.895-.967.641-.32 1.561-.533 2.605-.533s1.964.213 2.605.533c.671.335.895.706.895.967z" id="path1040" stroke="#414549"/><path d="M90.5 31c0 .26-.225.632-.895.967-.641.32-1.561.533-2.605.533s-1.964-.213-2.605-.533c-.67-.335-.895-.706-.895-.967 0-.26.225-.632.895-.967.641-.32 1.561-.533 2.605-.533s1.964.213 2.605.533c.67.335.895.706.895.967z" id="path1042" stroke="#414549"/><path d="M163.5 57c0 .26-.224.632-.895.967-.641.32-1.561.533-2.605.533s-1.964-.213-2.605-.533c-.671-.335-.895-.706-.895-.967 0-.26.224-.632.895-.967.641-.32 1.561-.533 2.605-.533s1.964.213 2.605.533c.671.335.895.706.895.967z" id="path1044" stroke="#414549"/></svg>