<svg width="128" height="107" viewBox="0 0 128 107" fill="none" xmlns="http://www.w3.org/2000/svg"><path d="M1 36v0c0-2.968.612-5.904 1.798-8.625L6 20.029M1 36v78.5h97M1 36v-1.121c0-5.647 5.14-9.899 10.686-8.84L88.248 40.64A12 12 0 0198 52.428V114.5m0 0h13m11.5-74l16-12.5m0 0v86.5H111M138.5 28v-5.155a7 7 0 00-5.751-6.888L50.347 1.017a12 12 0 00-5.617.321l-29.922 9.056a12 12 0 00-7.524 6.69L6 20.03M122.5 45.5l16-12.5m-16 17.5l16-12.5m-16 17.5l16-12.5m-16 17.5l16-12.5m-16 17.5l16-12.5M111 114.5V43.03a12 12 0 00-9.87-11.81L14.346 15.57A7.628 7.628 0 006 20.03v0m50.5 37.288v24.46a1 1 0 01-1.198.98l-40-8.096a1 1 0 01-.802-.98v-24.46a1 1 0 011.198-.98l40 8.096a1 1 0 01.802.98zm34-4.176V98.65a1.5 1.5 0 01-1.81 1.467L9.088 83.335A2 2 0 017.5 81.378V37.437a2 2 0 012.39-1.962l79 15.705a2 2 0 011.61 1.962z" stroke="#414549"/><path d="M138.5 114.5V22.845a7 7 0 00-5.751-6.888L50.347 1.017a12 12 0 00-5.617.321l-29.922 9.056a12 12 0 00-7.524 6.69L6 20.03l-3.202 7.346A21.585 21.585 0 001 36v78.5" stroke="#414549" stroke-width="1.6"/><path d="M77 74a3.5 3.5 0 11-7 0 3.5 3.5 0 017 0z" stroke="#414549"/></svg>