<svg width="157" height="122" viewBox="0 0 157 122" fill="none" xmlns="http://www.w3.org/2000/svg"><path d="M52.435 52.245c.534-2.143 4.23-4.912 6.012-6.028l20.04-23.444 26.011-18.098a11 11 0 0113.127.418l48.367 38.444M52.435 52.245l-7.348 4.019m7.348-4.019c0 2.68 3.117 3.796 4.676 4.019m-12.024 0c-2.004-.224-6.546-.268-8.684 1.34-2.137 1.607-2.004 4.688-2.004 4.688m10.688-6.028c1.673.682 4.131 2.348 3.605 4.485m-14.293 1.543v6.698m0-6.698c.446 1.786 2.94 4.823 9.352 2.68 3.247-1.503 4.626-2.947 4.94-4.223M34.4 68.99c-.89.447-2.538 2.01-2.004 4.689M34.4 68.99l28.834 29.53a9 9 0 012.56 6.287v9.731M32.395 73.679c-.668.223-2.004 1.072-2.004 2.679L7.68 88.415m24.715-14.736l27.569 28.872a9 9 0 012.49 6.215v5.101M7.68 88.415C6.344 86.405 1 86.405 1 93.773c0 7.368 26.051 34.16 26.051 34.16 2.672 2.456 8.283 5.761 9.352-.67M7.68 88.415l25.775 28.195a12.001 12.001 0 013.084 9.288l-.136 1.365m0 0l26.052-13.396m0 0c.668.447 2.27 1.206 3.34.67m0 0c1.068-.536 3.117-.67 4.007-.67l3.34 2.679m0 0s0 4.689 2.672 6.029c3.942 1.976 7.57 0 8.684-.67.668-.447 2.004-1.876 2.004-4.019m-13.36-1.34c0-.535-.222-12.056 0-17.415m13.36 18.755l8.016-4.689c1.558.224 5.344.268 8.015-1.339 2.672-1.608 2.004-4.019 2.004-4.019 5.344-.67 15.898-3.751 15.364-10.717l20.708-10.717 25.303-24.103a6.003 6.003 0 001.765-3.274l1.463-8.068a7.351 7.351 0 00-3.148-7.422v0m-79.49 74.348c.102-5.582-.29-17.683 0-18.754M73.81 38.849c-1.113-.67-4.275-1.206-8.016 2.01-3.74 3.214-2.449 6.697-1.336 8.037l2.222 2.01m7.13-12.057l8.684-12.057 23.719-17.554a7 7 0 018.544.166l47.275 37.923a2 2 0 01-.009 3.127l-26.758 21.215-17.368 6.699c.223 3.349-1.069 9.913-8.016 9.377-5.356-.413-8.674-3.508-10.32-6.029M73.81 38.85v10.717m0 7.788l24.715 22.353c.204.563.545 1.26 1.034 2.01M73.81 57.353v-7.788m0 7.788l-7.13-6.449m7.13-1.34l9.352-13.395 11.356-8.708 12.145-12.732a4 4 0 015.417-.342l46.564 37.857M73.142 99.132c0-3.751 4.008-5.136 6.012-5.359 3.538-.394 7.348 1.34 7.348 5.359m-13.36 0c0 3.75 4.008 4.688 6.012 4.688 2.672 0 7.348-1.473 7.348-4.688m0 0c.534 0 7.348-4.16 10.688-6.239m2.37-11.177c-2.563 0-8.121 1.369-7.916 6.029m74.348-44.208l.688.625a4 4 0 01.079 5.847l-28.154 27.019-30.728 14.736c-2.902.885-7.235 1.628-10.687 1.13m0 0c-2.64-.382-4.765-1.488-5.344-3.81a6.758 6.758 0 01-.202-1.34m-9.818 6.029l9.818-6.028M48.692 60.749l8.419-4.485m0 0c.668 0 7.115 1.34 9.57-5.359" stroke="#414549"/><path d="M169.137 50.974l-1.46 8.054a6.003 6.003 0 01-1.765 3.274l-25.303 24.103-20.708 10.717c.534 6.966-10.02 10.047-15.364 10.717 0 0 .668 2.411-2.004 4.019-2.671 1.607-6.457 1.563-8.015 1.339l-8.016 4.689c0 2.143-1.336 3.572-2.004 4.019-1.113.67-4.742 2.646-8.684.67-2.672-1.34-2.672-6.029-2.672-6.029l-3.34-2.679c-.89 0-2.939.134-4.008.67-1.068.536-2.671-.223-3.34-.67l-26.05 13.396c-1.07 6.431-6.68 3.126-9.353.67 0 0-26.051-26.792-26.051-34.16C1 86.405 6.5 87 7.68 88.415l22.71-12.057c0-1.608 1.336-2.456 2.004-2.68-.533-2.678 1.116-4.24 2.006-4.688v-6.698s-.133-3.081 2.004-4.689c2.138-1.607 6.68-1.563 8.684-1.34l7.348-4.018c.534-2.143 4.23-4.912 6.012-6.028l20.04-23.444 26.015-18.1a11 11 0 0113.123.415L166 43.5a7.431 7.431 0 013.137 7.474z" stroke="#414549" stroke-width="1.6"/><path d="M43.5 60c0 .333-.203.696-.656.998-.45.3-1.1.502-1.844.502-.743 0-1.394-.202-1.844-.502-.453-.302-.656-.665-.656-.998 0-.333.203-.696.656-.998.45-.3 1.1-.502 1.844-.502.743 0 1.394.202 1.844.502.453.302.656.665.656.998zm39 38.5c0 .487-.275.975-.816 1.36-.539.386-1.31.64-2.184.64-.874 0-1.645-.254-2.184-.64-.54-.385-.816-.873-.816-1.36 0-.487.275-.975.816-1.36.539-.386 1.31-.64 2.184-.64.874 0 1.645.254 2.184.64.54.385.816.873.816 1.36zM8.5 96c0 1.093-.004 1.784-.148 2.305-.128.46-.368.79-.935 1.12a.478.478 0 01-.502.009c-.202-.103-.434-.327-.658-.684C5.81 98.04 5.5 96.977 5.5 96c0-1.093.004-1.784.149-2.304.127-.46.367-.791.935-1.12a.479.479 0 01.502-.01c.201.103.433.327.658.684.446.71.756 1.773.756 2.75zm6 8c0 1.093-.004 1.784-.149 2.304-.127.46-.367.792-.934 1.12a.48.48 0 01-.502.01c-.201-.103-.434-.327-.658-.684-.447-.71-.757-1.773-.757-2.75 0-1.093.004-1.784.149-2.304.127-.46.367-.791.935-1.12a.48.48 0 01.502-.01c.201.103.433.327.658.684.446.71.756 1.773.756 2.75zm7 8c0 1.093-.004 1.784-.148 2.304-.128.46-.368.792-.935 1.12a.48.48 0 01-.502.01c-.201-.103-.434-.327-.658-.684-.447-.71-.757-1.773-.757-2.75 0-1.093.004-1.784.149-2.304.127-.46.367-.791.935-1.12a.48.48 0 01.502-.01c.201.103.433.327.658.684.446.71.756 1.773.756 2.75zm8 8c0 1.093-.004 1.784-.148 2.304-.128.46-.368.792-.935 1.12a.48.48 0 01-.502.01c-.201-.103-.434-.327-.658-.684-.447-.71-.757-1.773-.757-2.75 0-1.093.004-1.784.149-2.304.127-.46.367-.791.935-1.12a.48.48 0 01.502-.01c.201.103.433.327.658.684.446.71.756 1.773.756 2.75zm23-63.5v.003a.214.214 0 01-.039.064.86.86 0 01-.27.193c-.28.14-.7.24-1.191.24-.492 0-.912-.1-1.19-.24a.86.86 0 01-.271-.194.214.214 0 01-.039-.063v-.006l.003-.01a.214.214 0 01.036-.053.86.86 0 01.27-.194c.28-.14.7-.24 1.191-.24.492 0 .912.1 1.19.24.14.07.226.14.271.194a.214.214 0 01.039.063v.003zm38 37v.003a.214.214 0 01-.039.064.86.86 0 01-.27.193c-.28.14-.7.24-1.191.24-.492 0-.912-.1-1.19-.24a.86.86 0 01-.271-.194.214.214 0 01-.039-.063v-.006l.003-.01a.214.214 0 01.036-.053.86.86 0 01.27-.194c.28-.14.7-.24 1.191-.24.492 0 .912.1 1.19.24.14.07.225.14.271.194a.214.214 0 01.039.063v.003zM61.5 52c0 .333-.203.696-.656.998-.45.3-1.1.502-1.844.502-.743 0-1.394-.202-1.844-.502-.453-.302-.656-.665-.656-.998 0-.333.203-.696.656-.998.45-.3 1.1-.502 1.844-.502.743 0 1.394.202 1.844.502.453.302.656.665.656.998zm40 35.5c0 .487-.275.975-.816 1.36-.539.386-1.31.64-2.184.64-.874 0-1.645-.254-2.184-.64-.54-.385-.816-.873-.816-1.36 0-.487.275-.975.816-1.36.539-.386 1.31-.64 2.184-.64.874 0 1.645.254 2.184.64.541.385.816.873.816 1.36z" stroke="#414549"/></svg>