<svg width="182" height="50" viewBox="0 0 182 50" fill="none" xmlns="http://www.w3.org/2000/svg">
<g clip-path="url(#clip0)">
<path d="M23.589 0.409526L42.5928 11.3812C43.0575 11.6495 43.4434 12.0353 43.7117 12.5C43.9799 12.9647 44.1212 13.4918 44.1212 14.0283V35.9717C44.1212 36.5082 43.9799 37.0353 43.7117 37.5C43.4434 37.9647 43.0575 38.3505 42.5928 38.6188L23.589 49.5905C23.1243 49.8588 22.5972 50 22.0606 50C21.524 50 20.9969 49.8588 20.5322 49.5905L1.52841 38.6188C1.06373 38.3505 0.677848 37.9647 0.409556 37.5C0.141265 37.0353 1.36311e-05 36.5082 0 35.9717V14.0283C1.36311e-05 13.4918 0.141265 12.9647 0.409556 12.5C0.677848 12.0353 1.06373 11.6495 1.52841 11.3812L20.5322 0.409526C20.9969 0.141241 21.524 0 22.0606 0C22.5972 0 23.1243 0.141241 23.589 0.409526Z" fill="#FF0A16"/>
<path fill-rule="evenodd" clip-rule="evenodd" d="M27.0745 12.2344H17.0468C17.0468 12.2344 14.1819 12.2344 14.1819 15.1405V36.9373C14.1819 39.82 17.0468 39.8438 17.0468 39.8438H27.0745C27.0745 39.8438 29.9395 39.8438 29.9395 36.9373V15.1408C29.9395 12.2344 27.0745 12.2344 27.0745 12.2344ZM27.0541 13.7188H17.0673C17.0673 13.7188 15.6409 13.6742 15.6409 15.1684V36.91C15.6409 38.3594 17.0676 38.3594 17.0676 38.3594H27.0535C27.0535 38.3594 28.4804 38.3594 28.4804 36.91V15.1684C28.4804 13.7187 27.0538 13.7188 27.0538 13.7188H27.0541ZM20.018 10.1562C18.559 10.1562 18.559 11.6406 18.559 11.6406H25.8542C25.8542 11.6406 25.8542 10.1562 24.3951 10.1562H20.018Z" fill="white"/>
</g>
<path d="M71.4135 26.2049C71.4135 26.0183 71.3428 25.8091 71.2046 25.5775L67.3962 19.4905C68.4953 19.1012 69.3663 18.461 70.0091 17.5602C70.6519 16.6626 70.97 15.617 70.97 14.4234C70.97 13.3392 70.7193 12.374 70.218 11.5214C69.7134 10.6689 69.0224 10.0061 68.1386 9.53318C67.258 9.06025 66.252 8.82539 65.124 8.82539H60.782C60.5185 8.82539 60.3031 8.91226 60.1328 9.08277C59.9625 9.25006 59.8789 9.46883 59.8789 9.73265V26.0633C59.8789 26.3271 59.9625 26.5459 60.1328 26.7164C60.3031 26.8869 60.5185 26.9706 60.782 26.9706C61.0455 26.9706 61.2641 26.8869 61.4312 26.7164C61.6015 26.5459 61.6883 26.3271 61.6883 26.0633V19.8605H65.124H65.5161L69.6941 26.5073C69.7873 26.6617 69.8966 26.7775 70.0187 26.8547C70.1441 26.9319 70.2983 26.9706 70.4847 26.9706C70.7643 26.9706 70.9861 26.8998 71.1564 26.7614C71.3268 26.6231 71.4135 26.4365 71.4135 26.2049ZM65.124 18.12H61.6883V10.5691H65.124C65.9114 10.5691 66.6152 10.73 67.2355 11.0549C67.8526 11.3799 68.3379 11.8367 68.685 12.4255C69.0353 13.0142 69.2088 13.6802 69.2088 14.4234C69.2088 15.1376 69.0353 15.7714 68.685 16.3312C68.3379 16.8878 67.8493 17.3253 67.2226 17.6438C66.5959 17.9591 65.8953 18.12 65.124 18.12ZM84.854 9.08277C84.6837 9.25006 84.6001 9.46883 84.6001 9.73265V20.9769C84.6001 22.1994 84.9054 23.2965 85.5161 24.2649C86.1267 25.2332 86.9816 25.9861 88.0808 26.5298C89.1799 27.0703 90.4269 27.3438 91.8185 27.3438C93.194 27.3438 94.425 27.0703 95.508 26.5298C96.5911 25.9861 97.4396 25.2332 98.0502 24.2649C98.6609 23.2965 98.9662 22.1994 98.9662 20.9769V9.73265C98.9662 9.46883 98.8826 9.25328 98.7123 9.08277C98.542 8.91226 98.3234 8.82539 98.0599 8.82539C97.7995 8.82539 97.581 8.91226 97.4107 9.08277C97.2403 9.25006 97.1568 9.46883 97.1568 9.73265V20.9769C97.1568 21.8745 96.9286 22.6756 96.4722 23.3801C96.0158 24.0847 95.3859 24.6348 94.5792 25.0306C93.7758 25.4263 92.8534 25.6225 91.8185 25.6225C90.7643 25.6225 89.8291 25.4263 89.0096 25.0306C88.19 24.6348 87.5505 24.0847 87.0941 23.3801C86.6377 22.6756 86.4095 21.8745 86.4095 20.9769V9.73265C86.4095 9.46883 86.326 9.25328 86.1556 9.08277C85.9853 8.91226 85.7668 8.82539 85.5064 8.82539C85.2429 8.82539 85.0243 8.91226 84.854 9.08277ZM126.287 9.05703C126.133 8.9026 125.931 8.82539 125.683 8.82539H112.85C112.603 8.82539 112.4 8.9026 112.246 9.05703C112.092 9.21146 112.015 9.41414 112.015 9.66187C112.015 9.89351 112.092 10.0865 112.246 10.2442C112.4 10.3986 112.603 10.4758 112.85 10.4758H118.349V26.0633C118.349 26.311 118.439 26.5266 118.616 26.7035C118.796 26.8805 119.008 26.9706 119.255 26.9706C119.519 26.9706 119.734 26.8805 119.905 26.7035C120.075 26.5266 120.162 26.311 120.162 26.0633V10.4758H125.683C125.931 10.4758 126.133 10.3986 126.287 10.2442C126.442 10.0865 126.519 9.89351 126.519 9.66187C126.519 9.41414 126.442 9.21146 126.287 9.05703ZM151.532 9.80021C150.115 8.9959 148.534 8.59375 146.786 8.59375C145.021 8.59375 143.437 8.9959 142.029 9.80021C140.621 10.6077 139.519 11.7145 138.722 13.1236C137.925 14.5328 137.526 16.1221 137.526 17.8851C137.526 19.6514 137.925 21.2439 138.722 22.6595C139.519 24.0783 140.621 25.1882 142.029 25.9957C143.437 26.8 145.021 27.2022 146.786 27.2022C148.534 27.2022 150.115 26.8 151.532 25.9957C152.947 25.1882 154.055 24.0783 154.852 22.6595C155.649 21.2439 156.045 19.6514 156.045 17.8851C156.045 16.1221 155.649 14.5328 154.852 13.1236C154.055 11.7145 152.947 10.6077 151.532 9.80021ZM142.945 11.3123C144.083 10.6463 145.362 10.3117 146.786 10.3117C148.193 10.3117 149.466 10.6463 150.604 11.3123C151.741 11.9783 152.635 12.8887 153.284 14.0405C153.933 15.1955 154.258 16.476 154.258 17.8851C154.258 19.3103 153.933 20.6004 153.284 21.7554C152.635 22.9072 151.741 23.8177 150.604 24.4836C149.466 25.1496 148.193 25.4842 146.786 25.4842C145.362 25.4842 144.083 25.1496 142.945 24.4836C141.807 23.8177 140.914 22.9072 140.265 21.7554C139.615 20.6004 139.291 19.3103 139.291 17.8851C139.291 16.476 139.615 15.1955 140.265 14.0405C140.914 12.8887 141.807 11.9783 142.945 11.3123ZM171.716 26.7035C171.886 26.5266 171.973 26.311 171.973 26.0633V20.1179L174.039 18.0267L180.351 26.5748C180.522 26.8386 180.776 26.9706 181.116 26.9706C181.348 26.9706 181.547 26.8805 181.708 26.7035C181.872 26.5266 181.952 26.3207 181.952 26.089C181.952 25.9185 181.891 25.7319 181.766 25.5292L175.338 16.7494L181.698 10.3825C181.897 10.167 182 9.91603 182 9.63935C182 9.40771 181.926 9.21146 181.778 9.05703C181.631 8.9026 181.425 8.82539 181.165 8.82539C180.901 8.82539 180.66 8.93478 180.445 9.15033L171.973 17.6309V9.73265C171.973 9.46883 171.886 9.25328 171.716 9.08277C171.545 8.91226 171.33 8.82539 171.066 8.82539C170.819 8.82539 170.607 8.91547 170.43 9.09242C170.25 9.26937 170.163 9.48492 170.163 9.73265V26.0633C170.163 26.311 170.25 26.5266 170.43 26.7035C170.607 26.8805 170.819 26.9706 171.066 26.9706C171.33 26.9706 171.545 26.8805 171.716 26.7035Z" fill="#FF0A16"/>
<path d="M60.1039 39.5327H60.5217C60.6727 39.5327 60.7467 39.4463 60.7467 39.2736V33.5832H63.8834V39.2736C63.8834 39.4463 63.9605 39.5327 64.1116 39.5327H64.5294C64.6804 39.5327 64.7544 39.4463 64.7544 39.2736V33.0716C64.7544 32.8989 64.6804 32.8125 64.5294 32.8125H60.1039C59.9528 32.8125 59.8789 32.8989 59.8789 33.0716V39.2736C59.8789 39.4463 59.9528 39.5327 60.1039 39.5327ZM66.3742 41.4062H66.763C66.898 41.4062 66.9655 41.3365 66.9655 41.197V39.2337C66.9655 39.1374 66.9655 39.0411 66.9591 38.948H66.9655C67.1326 39.154 67.319 39.3168 67.5279 39.433C67.7369 39.5526 68.0165 39.6124 68.3636 39.6124C68.9678 39.6124 69.4274 39.3566 69.7423 38.8451C70.0541 38.3368 70.2115 37.7455 70.2115 37.0745C70.2115 36.4001 70.0541 35.8089 69.7423 35.3006C69.4274 34.789 68.9678 34.5332 68.3636 34.5332C68.0165 34.5332 67.7369 34.593 67.5279 34.7126C67.319 34.8289 67.1326 34.9917 66.9655 35.1976H66.9591L66.9302 34.8256C66.9205 34.6827 66.8627 34.613 66.7534 34.613H66.3742C66.236 34.613 66.1685 34.6827 66.1685 34.8256V41.197C66.1685 41.3365 66.236 41.4062 66.3742 41.4062ZM66.9655 37.6126V36.533C66.9655 36.0646 67.0748 35.7158 67.2901 35.4866C67.5087 35.2574 67.7786 35.1412 68.1032 35.1412C68.5628 35.1412 68.8906 35.3205 69.0803 35.676C69.2731 36.0314 69.3695 36.4998 69.3695 37.0745C69.3695 37.6492 69.2731 38.1142 69.0803 38.4697C68.8906 38.8251 68.5628 39.0045 68.1032 39.0045C67.7786 39.0045 67.5087 38.8883 67.2901 38.659C67.0748 38.4298 66.9655 38.081 66.9655 37.6126ZM70.9829 37.0745C70.9829 37.8053 71.1725 38.4132 71.5485 38.8916C71.9245 39.3732 72.4741 39.6124 73.2005 39.6124C73.9236 39.6124 74.4764 39.3732 74.8524 38.8916C75.2284 38.4132 75.4148 37.8053 75.4148 37.0745C75.4148 36.3404 75.2284 35.7324 74.8524 35.2541C74.4764 34.7724 73.9236 34.5332 73.2005 34.5332C72.4741 34.5332 71.9245 34.7724 71.5485 35.2541C71.1725 35.7324 70.9829 36.3404 70.9829 37.0745ZM71.8249 37.0745C71.8249 36.4168 71.9503 35.9318 72.2009 35.6162C72.4548 35.3006 72.7859 35.1412 73.2005 35.1412C73.6151 35.1412 73.9461 35.3006 74.1968 35.6162C74.4474 35.9318 74.5728 36.4168 74.5728 37.0745C74.5728 37.7289 74.4474 38.2139 74.1968 38.5295C73.9461 38.8451 73.6151 39.0045 73.2005 39.0045C72.7859 39.0045 72.4548 38.8451 72.2009 38.5295C71.9503 38.2139 71.8249 37.7289 71.8249 37.0745ZM76.649 39.5327H77.0378C77.176 39.5327 77.2435 39.4629 77.2435 39.3234V35.7856C77.2435 35.6893 77.2403 35.5963 77.2339 35.5032H77.2435L78.603 39.247C78.6737 39.4364 78.7541 39.5327 78.8473 39.5327H79.2008C79.294 39.5327 79.3775 39.4364 79.445 39.247L80.8045 35.5032H80.8142C80.8077 35.5963 80.8045 35.6893 80.8045 35.7856V39.3234C80.8045 39.4629 80.8752 39.5327 81.0102 39.5327H81.3991C81.5373 39.5327 81.6048 39.4629 81.6048 39.3234V34.8256C81.6048 34.6827 81.5373 34.613 81.3991 34.613H80.5378C80.4446 34.613 80.3771 34.6728 80.3353 34.7957L79.2972 37.8884C79.2747 37.9548 79.2361 38.0744 79.1783 38.2504C79.1204 38.4232 79.0722 38.5893 79.0337 38.7454H79.0144C78.9758 38.5893 78.9276 38.4232 78.8698 38.2504C78.8119 38.0744 78.7733 37.9548 78.7541 37.8884L77.716 34.7957C77.671 34.6728 77.6035 34.613 77.5103 34.613H76.649C76.514 34.613 76.4465 34.6827 76.4465 34.8256V39.3234C76.4465 39.4629 76.514 39.5327 76.649 39.5327ZM83.096 39.5327H84.6965C85.3907 39.5327 85.8664 39.3998 86.1267 39.1374C86.387 38.8716 86.5188 38.5228 86.5188 38.0844C86.5188 37.6492 86.387 37.2971 86.1267 37.0346C85.8664 36.7689 85.3907 36.636 84.6965 36.636H83.6906V34.8256C83.6906 34.6827 83.6199 34.613 83.4849 34.613H83.096C82.9578 34.613 82.8903 34.6827 82.8903 34.8256V39.3234C82.8903 39.4629 82.9578 39.5327 83.096 39.5327ZM83.6906 38.9181V37.2472H84.4876C84.9086 37.2472 85.214 37.3004 85.3972 37.4067C85.5836 37.5163 85.6735 37.7422 85.6735 38.0844C85.6735 38.4298 85.5836 38.6524 85.3972 38.7587C85.214 38.865 84.9086 38.9181 84.4876 38.9181H83.6906ZM87.5023 39.5327H87.8911C88.0261 39.5327 88.0936 39.4629 88.0936 39.3234V34.8256C88.0936 34.6827 88.0261 34.613 87.8911 34.613H87.5023C87.3641 34.613 87.2966 34.6827 87.2966 34.8256V39.3234C87.2966 39.4629 87.3641 39.5327 87.5023 39.5327ZM89.5848 39.5327H95.4695C95.6077 39.5327 95.6752 39.4629 95.6752 39.3234V34.8256C95.6752 34.6827 95.6077 34.613 95.4695 34.613H95.0806C94.9456 34.613 94.8749 34.6827 94.8749 34.8256V38.9148H92.9273V34.8256C92.9273 34.6827 92.8598 34.613 92.7248 34.613H92.3327C92.1977 34.613 92.1302 34.6827 92.1302 34.8256V38.9148H90.1794V34.8256C90.1794 34.6827 90.1119 34.613 89.9769 34.613H89.5848C89.4499 34.613 89.3824 34.6827 89.3824 34.8256V39.3234C89.3824 39.4629 89.4499 39.5327 89.5848 39.5327ZM96.5975 39.5692C96.6618 39.5991 96.7968 39.6124 97.0025 39.6124C97.5103 39.6124 97.8863 39.3334 98.1274 38.7753C98.3716 38.2139 98.4937 37.3569 98.4937 36.2008V35.2308H100.049V39.3234C100.049 39.4629 100.117 39.5327 100.252 39.5327H100.644C100.779 39.5327 100.846 39.4629 100.846 39.3234V34.8256C100.846 34.6827 100.779 34.613 100.644 34.613H98.0824C97.8895 34.613 97.7963 34.6827 97.7963 34.8256V35.9617C97.7963 37.131 97.716 37.9282 97.5521 38.3601C97.3914 38.7886 97.176 39.0045 96.9029 39.0045C96.8514 39.0045 96.7904 38.9946 96.7229 38.9746C96.6554 38.958 96.6168 38.9813 96.604 39.0411L96.5204 39.4297C96.5076 39.4962 96.5333 39.5427 96.5975 39.5692ZM101.852 37.0745C101.852 37.8485 102.032 38.463 102.389 38.9248C102.749 39.3832 103.305 39.6124 104.06 39.6124C104.642 39.6124 105.066 39.5128 105.336 39.3135C105.606 39.1141 105.77 38.968 105.828 38.8783C105.899 38.7687 105.899 38.6823 105.828 38.6192L105.561 38.38C105.471 38.3003 105.375 38.3235 105.278 38.4564C105.191 38.5727 105.053 38.6956 104.867 38.8152C104.68 38.9381 104.411 38.9979 104.06 38.9979C103.729 38.9979 103.43 38.8816 103.167 38.6458C102.903 38.4099 102.746 37.988 102.694 37.3868H105.857C105.979 37.3868 106.04 37.317 106.04 37.1775C106.04 36.254 105.85 35.583 105.468 35.1644C105.085 34.7425 104.603 34.5332 104.025 34.5332C103.327 34.5332 102.791 34.7625 102.415 35.2209C102.039 35.6826 101.852 36.2972 101.852 37.0745ZM102.678 36.7788C102.723 36.1643 102.868 35.7391 103.112 35.4966C103.356 35.2541 103.655 35.1345 104.006 35.1345C104.404 35.1345 104.706 35.2973 104.912 35.6261C105.118 35.9583 105.227 36.3404 105.24 36.7788H102.678ZM107.293 39.5327H107.682C107.817 39.5327 107.885 39.4629 107.885 39.3234V37.2738H110.08V39.3234C110.08 39.4629 110.147 39.5327 110.285 39.5327H110.674C110.809 39.5327 110.877 39.4629 110.877 39.3234V34.8256C110.877 34.6827 110.809 34.613 110.674 34.613H110.285C110.147 34.613 110.08 34.6827 110.08 34.8256V36.6559H107.885V34.8256C107.885 34.6827 107.817 34.613 107.682 34.613H107.293C107.155 34.613 107.088 34.6827 107.088 34.8256V39.3234C107.088 39.4629 107.155 39.5327 107.293 39.5327ZM112.368 39.5327H112.76C112.895 39.5327 112.963 39.4629 112.963 39.3234V37.2738H115.158V39.3234C115.158 39.4629 115.225 39.5327 115.36 39.5327H115.752C115.887 39.5327 115.955 39.4629 115.955 39.3234V34.8256C115.955 34.6827 115.887 34.613 115.752 34.613H115.36C115.225 34.613 115.158 34.6827 115.158 34.8256V36.6559H112.963V34.8256C112.963 34.6827 112.895 34.613 112.76 34.613H112.368C112.233 34.613 112.166 34.6827 112.166 34.8256V39.3234C112.166 39.4629 112.233 39.5327 112.368 39.5327ZM116.983 38.2205C116.983 38.659 117.118 38.9979 117.385 39.2437C117.652 39.4895 118.034 39.6124 118.529 39.6124C118.812 39.6124 119.066 39.5726 119.294 39.4962C119.522 39.4198 119.754 39.2869 119.995 39.0909H120.001V39.3234C120.001 39.4629 120.062 39.5327 120.178 39.5327H120.586C120.724 39.5327 120.792 39.4629 120.792 39.3234V36.4168C120.792 35.8321 120.657 35.3737 120.387 35.0382C120.12 34.7027 119.67 34.5332 119.037 34.5332C118.805 34.5332 118.574 34.5598 118.349 34.6163C118.124 34.6694 117.938 34.7359 117.787 34.8156C117.636 34.892 117.478 35.0083 117.321 35.1644C117.208 35.274 117.186 35.3704 117.25 35.4468L117.488 35.7291C117.559 35.8122 117.636 35.8089 117.719 35.7125C117.825 35.5896 117.941 35.4866 118.06 35.4069C118.179 35.3272 118.311 35.2641 118.458 35.2142C118.603 35.1677 118.796 35.1412 119.037 35.1412C119.419 35.1412 119.673 35.2508 119.802 35.4634C119.93 35.676 119.995 35.9318 119.995 36.2241V36.543C118.992 36.5862 118.243 36.739 117.738 36.9981C117.234 37.2572 116.983 37.6658 116.983 38.2205ZM117.809 38.2405C117.809 38.0279 117.89 37.8385 118.053 37.6758C118.217 37.5097 118.429 37.3967 118.687 37.327C118.947 37.2605 119.384 37.204 119.995 37.1575V38.5395C119.773 38.7388 119.558 38.8617 119.349 38.9082C119.143 38.958 118.921 38.9813 118.687 38.9813C118.536 38.9813 118.391 38.9647 118.253 38.9314C118.115 38.8982 118.005 38.8218 117.928 38.7055C117.848 38.5893 117.809 38.4332 117.809 38.2405ZM122.183 39.5327H122.681C122.775 39.5327 122.861 39.4762 122.939 39.36L123.739 38.184C123.9 37.9415 124.047 37.7688 124.176 37.6658C124.308 37.5595 124.475 37.5097 124.68 37.5097H125.108V39.3234C125.108 39.4629 125.175 39.5327 125.31 39.5327H125.699C125.837 39.5327 125.905 39.4629 125.905 39.3234V34.8256C125.905 34.6827 125.837 34.613 125.699 34.613H124.128C123.433 34.613 122.955 34.7292 122.694 34.9618C122.434 35.1943 122.305 35.5298 122.305 35.9683C122.305 36.3503 122.402 36.6526 122.595 36.8719C122.787 37.0911 123.147 37.2572 123.675 37.3668V37.3768C123.559 37.4366 123.427 37.5362 123.273 37.6791C123.122 37.8219 123.003 37.9482 122.922 38.0611L122.064 39.257C121.933 39.4397 121.971 39.5327 122.183 39.5327ZM123.147 35.9683C123.147 35.6826 123.241 35.4899 123.43 35.3836C123.617 35.2807 123.919 35.2275 124.337 35.2275H125.108V36.8984H124.33C124.012 36.8984 123.736 36.8386 123.501 36.7157C123.266 36.5961 123.147 36.3437 123.147 35.9683ZM129.913 38.8384C130.009 38.9713 130.179 39.1308 130.427 39.3234C130.678 39.5161 131.086 39.6124 131.651 39.6124C132.394 39.6124 132.94 39.3932 133.294 38.9514C133.647 38.5129 133.824 37.885 133.824 37.0745C133.824 36.2606 133.647 35.6361 133.294 35.1943C132.94 34.7525 132.394 34.5332 131.651 34.5332C131.208 34.5332 130.858 34.603 130.597 34.7458C130.34 34.8887 130.154 35.0249 130.038 35.1578C129.929 35.2807 129.916 35.3803 129.996 35.4567L130.25 35.6893C130.337 35.769 130.43 35.7391 130.536 35.6029C130.62 35.4933 130.748 35.387 130.925 35.2906C131.102 35.191 131.343 35.1412 131.651 35.1412C132.05 35.1412 132.368 35.2807 132.606 35.5531C132.844 35.8255 132.963 36.1975 132.963 36.6659H130.951C130.813 36.6659 130.745 36.7191 130.745 36.8287V37.111C130.745 37.2207 130.813 37.2738 130.951 37.2738H132.982C132.966 37.8917 132.847 38.3368 132.628 38.6026C132.407 38.8683 132.082 39.0045 131.651 39.0045C131.288 39.0045 131.028 38.9514 130.864 38.8451C130.7 38.7421 130.568 38.6092 130.469 38.4498C130.385 38.3069 130.292 38.277 130.189 38.3601L129.922 38.5826C129.836 38.6458 129.832 38.7321 129.913 38.8384ZM133.988 39.5692C134.049 39.5991 134.184 39.6124 134.39 39.6124C134.897 39.6124 135.273 39.3334 135.518 38.7753C135.759 38.2139 135.881 37.3569 135.881 36.2008V35.2308H137.436V39.3234C137.436 39.4629 137.504 39.5327 137.639 39.5327H138.031C138.166 39.5327 138.233 39.4629 138.233 39.3234V34.8256C138.233 34.6827 138.166 34.613 138.031 34.613H135.469C135.28 34.613 135.183 34.6827 135.183 34.8256V35.9617C135.183 37.131 135.103 37.9282 134.942 38.3601C134.779 38.7886 134.563 39.0045 134.29 39.0045C134.239 39.0045 134.178 38.9946 134.11 38.9746C134.043 38.958 134.004 38.9813 133.991 39.0411L133.911 39.4297C133.895 39.4962 133.92 39.5427 133.988 39.5692ZM139.239 37.0745C139.239 37.8485 139.419 38.463 139.776 38.9248C140.136 39.3832 140.692 39.6124 141.447 39.6124C142.029 39.6124 142.453 39.5128 142.723 39.3135C142.993 39.1141 143.157 38.968 143.215 38.8783C143.286 38.7687 143.286 38.6823 143.215 38.6192L142.948 38.38C142.858 38.3003 142.765 38.3235 142.669 38.4564C142.579 38.5727 142.444 38.6956 142.254 38.8152C142.068 38.9381 141.798 38.9979 141.447 38.9979C141.116 38.9979 140.817 38.8816 140.554 38.6458C140.294 38.4099 140.136 37.988 140.085 37.3868H143.244C143.366 37.3868 143.43 37.317 143.43 37.1775C143.43 36.254 143.237 35.583 142.855 35.1644C142.473 34.7425 141.99 34.5332 141.412 34.5332C140.715 34.5332 140.178 34.7625 139.802 35.2209C139.429 35.6826 139.239 36.2972 139.239 37.0745ZM140.065 36.7788C140.11 36.1643 140.255 35.7391 140.499 35.4966C140.747 35.2541 141.042 35.1345 141.393 35.1345C141.791 35.1345 142.093 35.2973 142.299 35.6261C142.505 35.9583 142.614 36.3404 142.627 36.7788H140.065ZM144.68 39.5327H145.069C145.204 39.5327 145.275 39.4629 145.275 39.3234V37.2738H145.465C145.632 37.2738 145.796 37.327 145.96 37.4299C146.12 37.5362 146.252 37.6758 146.352 37.8551L147.2 39.36C147.268 39.4762 147.354 39.5327 147.457 39.5327H147.904C148.09 39.5327 148.129 39.4397 148.02 39.257L147.113 37.7322C146.953 37.4632 146.808 37.2771 146.689 37.1808C146.567 37.0845 146.419 37.0047 146.249 36.9449V36.9383C146.381 36.9018 146.525 36.8021 146.676 36.636C146.831 36.4732 146.937 36.3437 146.998 36.254L147.917 34.8887C148.039 34.706 148 34.613 147.798 34.613H147.387C147.277 34.613 147.197 34.6528 147.146 34.7359L146.381 35.9716C146.3 36.0979 146.181 36.2407 146.021 36.4068C145.857 36.5729 145.67 36.6559 145.458 36.6559H145.275V34.8256C145.275 34.6827 145.204 34.613 145.069 34.613H144.68C144.546 34.613 144.475 34.6827 144.475 34.8256V39.3234C144.475 39.4629 144.546 39.5327 144.68 39.5327ZM148.666 35.2441H150.093V39.3234C150.093 39.4629 150.16 39.5327 150.295 39.5327H150.687C150.822 39.5327 150.89 39.4629 150.89 39.3234V35.2441H152.317C152.455 35.2441 152.522 35.191 152.522 35.0814V34.7757C152.522 34.6694 152.455 34.613 152.317 34.613H148.666C148.528 34.613 148.46 34.6694 148.46 34.7757V35.0814C148.46 35.191 148.528 35.2441 148.666 35.2441ZM153.515 41.4062H153.904C154.039 41.4062 154.11 41.3365 154.11 41.197V39.2337C154.11 39.1374 154.107 39.0411 154.1 38.948H154.11C154.274 39.154 154.464 39.3168 154.669 39.433C154.878 39.5526 155.158 39.6124 155.505 39.6124C156.109 39.6124 156.569 39.3566 156.884 38.8451C157.199 38.3368 157.353 37.7455 157.353 37.0745C157.353 36.4001 157.199 35.8089 156.884 35.3006C156.569 34.789 156.109 34.5332 155.505 34.5332C155.158 34.5332 154.878 34.593 154.669 34.7126C154.464 34.8289 154.274 34.9917 154.11 35.1976H154.1L154.071 34.8256C154.062 34.6827 154.004 34.613 153.895 34.613H153.515C153.377 34.613 153.31 34.6827 153.31 34.8256V41.197C153.31 41.3365 153.377 41.4062 153.515 41.4062ZM154.11 37.6126V36.533C154.11 36.0646 154.216 35.7158 154.431 35.4866C154.65 35.2574 154.92 35.1412 155.248 35.1412C155.707 35.1412 156.032 35.3205 156.225 35.676C156.414 36.0314 156.511 36.4998 156.511 37.0745C156.511 37.6492 156.414 38.1142 156.225 38.4697C156.032 38.8251 155.707 39.0045 155.248 39.0045C154.92 39.0045 154.65 38.8883 154.431 38.659C154.216 38.4298 154.11 38.081 154.11 37.6126ZM158.124 37.0745C158.124 37.8053 158.314 38.4132 158.69 38.8916C159.066 39.3732 159.615 39.6124 160.342 39.6124C161.068 39.6124 161.618 39.3732 161.994 38.8916C162.37 38.4132 162.559 37.8053 162.559 37.0745C162.559 36.3404 162.37 35.7324 161.994 35.2541C161.618 34.7724 161.068 34.5332 160.342 34.5332C159.615 34.5332 159.066 34.7724 158.69 35.2541C158.314 35.7324 158.124 36.3404 158.124 37.0745ZM158.969 37.0745C158.969 36.4168 159.095 35.9318 159.345 35.6162C159.596 35.3006 159.927 35.1412 160.342 35.1412C160.756 35.1412 161.087 35.3006 161.338 35.6162C161.589 35.9318 161.714 36.4168 161.714 37.0745C161.714 37.7289 161.589 38.2139 161.338 38.5295C161.087 38.8451 160.756 39.0045 160.342 39.0045C159.927 39.0045 159.596 38.8451 159.345 38.5295C159.095 38.2139 158.969 37.7289 158.969 37.0745ZM163.79 39.5327H164.182C164.317 39.5327 164.385 39.4629 164.385 39.3234V37.2738H166.58V39.3234C166.58 39.4629 166.647 39.5327 166.782 39.5327H167.171C167.309 39.5327 167.377 39.4629 167.377 39.3234V34.8256C167.377 34.6827 167.309 34.613 167.171 34.613H166.782C166.647 34.613 166.58 34.6827 166.58 34.8256V36.6559H164.385V34.8256C164.385 34.6827 164.317 34.613 164.182 34.613H163.79C163.655 34.613 163.588 34.6827 163.588 34.8256V39.3234C163.588 39.4629 163.655 39.5327 163.79 39.5327ZM168.868 39.5327H169.418C169.591 39.5327 169.723 39.4563 169.807 39.3035L171.883 35.583H171.892C171.886 35.676 171.883 35.769 171.883 35.8653V39.3234C171.883 39.4629 171.95 39.5327 172.085 39.5327H172.477C172.612 39.5327 172.68 39.4629 172.68 39.3234V34.8256C172.68 34.6827 172.612 34.613 172.477 34.613H171.928C171.751 34.613 171.622 34.6894 171.539 34.8422L169.463 38.5627H169.453C169.46 38.4697 169.463 38.3767 169.463 38.2803V34.8256C169.463 34.6827 169.395 34.613 169.257 34.613H168.868C168.733 34.613 168.662 34.6827 168.662 34.8256V39.3234C168.662 39.4629 168.733 39.5327 168.868 39.5327ZM174.171 39.5327H174.56C174.698 39.5327 174.766 39.4629 174.766 39.3234V37.2738H174.955C175.122 37.2738 175.286 37.327 175.45 37.4299C175.614 37.5362 175.746 37.6758 175.846 37.8551L176.691 39.36C176.758 39.4762 176.845 39.5327 176.951 39.5327H177.395C177.581 39.5327 177.62 39.4397 177.514 39.257L176.607 37.7322C176.443 37.4632 176.302 37.2771 176.18 37.1808C176.058 37.0845 175.913 37.0047 175.739 36.9449V36.9383C175.874 36.9018 176.016 36.8021 176.167 36.636C176.321 36.4732 176.427 36.3437 176.488 36.254L177.407 34.8887C177.533 34.706 177.494 34.613 177.292 34.613H176.877C176.768 34.613 176.688 34.6528 176.636 34.7359L175.871 35.9716C175.794 36.0979 175.672 36.2407 175.511 36.4068C175.351 36.5729 175.164 36.6559 174.952 36.6559H174.766V34.8256C174.766 34.6827 174.698 34.613 174.56 34.613H174.171C174.036 34.613 173.969 34.6827 173.969 34.8256V39.3234C173.969 39.4629 174.036 39.5327 174.171 39.5327ZM178.192 38.2205C178.192 38.659 178.327 38.9979 178.593 39.2437C178.86 39.4895 179.243 39.6124 179.738 39.6124C180.02 39.6124 180.274 39.5726 180.502 39.4962C180.731 39.4198 180.962 39.2869 181.203 39.0909H181.213V39.3234C181.213 39.4629 181.271 39.5327 181.389 39.5327H181.794C181.933 39.5327 182 39.4629 182 39.3234V36.4168C182 35.8321 181.865 35.3737 181.595 35.0382C181.328 34.7027 180.878 34.5332 180.245 34.5332C180.014 34.5332 179.783 34.5598 179.558 34.6163C179.333 34.6694 179.146 34.7359 178.995 34.8156C178.844 34.892 178.687 35.0083 178.529 35.1644C178.417 35.274 178.394 35.3704 178.458 35.4468L178.696 35.7291C178.767 35.8122 178.844 35.8089 178.928 35.7125C179.037 35.5896 179.149 35.4866 179.268 35.4069C179.387 35.3272 179.519 35.2641 179.667 35.2142C179.811 35.1677 180.004 35.1412 180.245 35.1412C180.628 35.1412 180.882 35.2508 181.01 35.4634C181.139 35.676 181.203 35.9318 181.203 36.2241V36.543C180.2 36.5862 179.452 36.739 178.947 36.9981C178.442 37.2572 178.192 37.6658 178.192 38.2205ZM179.018 38.2405C179.018 38.0279 179.098 37.8385 179.262 37.6758C179.426 37.5097 179.638 37.3967 179.898 37.327C180.155 37.2605 180.592 37.204 181.203 37.1575V38.5395C180.981 38.7388 180.766 38.8617 180.557 38.9082C180.351 38.958 180.13 38.9813 179.898 38.9813C179.747 38.9813 179.599 38.9647 179.461 38.9314C179.323 38.8982 179.214 38.8218 179.137 38.7055C179.056 38.5893 179.018 38.4332 179.018 38.2405Z" fill="#2E2E2E"/>
<defs>
<clipPath id="clip0">
<rect width="44.1212" height="50" fill="white"/>
</clipPath>
</defs>
</svg>
