<svg width="147" height="20" viewBox="0 0 147 20" fill="none" xmlns="http://www.w3.org/2000/svg">
<path d="M20.3039 2.12354H11.6602V17.733H20.3039V2.12354Z" fill="#AAAAAA"/>
<path d="M12.2111 9.92826C12.2111 6.75673 13.6929 3.94372 15.9704 2.12354C14.2965 0.799776 12.1836 0 9.87861 0C4.41794 0 0 4.44014 0 9.92826C0 15.4164 4.41794 19.8565 9.87861 19.8565C12.1836 19.8565 14.2965 19.0567 15.9704 17.733C13.6929 15.9404 12.2111 13.0998 12.2111 9.92826Z" fill="#BDBDBD"/>
<path d="M31.9704 9.92826C31.9704 15.4164 27.5525 19.8565 22.0918 19.8565C19.7868 19.8565 17.6739 19.0567 16 17.733C18.305 15.9128 19.7594 13.0998 19.7594 9.92826C19.7594 6.75673 18.2776 3.94372 16 2.12354C17.6739 0.799776 19.7868 0 22.0918 0C27.5525 0 31.9704 4.46771 31.9704 9.92826Z" fill="#D9D9D9"/>
<g clip-path="url(#clip0)">
<path d="M61.9334 16.798H58.207L60.5377 3.24561H64.2639L61.9334 16.798Z" fill="#BDBDBD"/>
<path d="M75.4416 3.57686C74.7066 3.30264 73.5409 2.99988 72.0994 2.99988C68.4195 2.99988 65.8282 4.84521 65.8123 7.48348C65.7818 9.42999 67.6676 10.5111 69.0781 11.1602C70.5198 11.8234 71.0099 12.2562 71.0099 12.8474C70.9952 13.7553 69.8449 14.1738 68.7721 14.1738C67.2843 14.1738 66.4872 13.958 65.2758 13.4529L64.7851 13.2364L64.2637 16.2786C65.1376 16.653 66.7478 16.9853 68.4195 16.9999C72.3295 16.9999 74.875 15.1831 74.9051 12.3716C74.92 10.8288 73.9242 9.64671 71.7773 8.68074C70.474 8.06065 69.6758 7.64253 69.6758 7.00806C69.6911 6.43128 70.3509 5.8405 71.8221 5.8405C73.0335 5.81157 73.9236 6.0854 74.5978 6.35942L74.9349 6.50333L75.4416 3.57686Z" fill="#BDBDBD"/>
<path d="M80.3932 11.9968C80.7 11.2183 81.8809 8.205 81.8809 8.205C81.8654 8.23394 82.1871 7.41207 82.3712 6.90752L82.6316 8.07528C82.6316 8.07528 83.3372 11.3193 83.4905 11.9968C82.9081 11.9968 81.1292 11.9968 80.3932 11.9968ZM84.9928 3.24561H82.1105C81.2217 3.24561 80.5464 3.4905 80.1629 4.37005L74.6279 16.7978H78.5378C78.5378 16.7978 79.1816 15.1251 79.3199 14.7648C79.7488 14.7648 83.5524 14.7648 84.1042 14.7648C84.2112 15.2406 84.5488 16.7978 84.5488 16.7978H87.999L84.9928 3.24561Z" fill="#BDBDBD"/>
<path d="M55.0945 3.24561L51.4452 12.487L51.0464 10.6128C50.3717 8.45009 48.2558 6.10041 45.8945 4.93208L49.2372 16.7836H53.1776L59.0348 3.24561H55.0945Z" fill="#BDBDBD"/>
<path d="M48.0566 3.24561H42.0613L42 3.51943C46.6767 4.64407 49.774 7.35496 51.0465 10.6133L49.7432 4.3848C49.5287 3.51924 48.8693 3.27416 48.0566 3.24561Z" fill="#9C9C9C"/>
</g>
<g clip-path="url(#clip1)">
<path fill-rule="evenodd" clip-rule="evenodd" d="M133.344 9.32495V17.0001H137.568V12.4519H142.355C144.37 12.4368 146.082 11.1375 146.727 9.32495H133.344Z" fill="#BDBDBD"/>
<path fill-rule="evenodd" clip-rule="evenodd" d="M132.777 3C133.023 6.13717 135.964 8.61421 139.555 8.61421C139.566 8.61421 146.899 8.61421 146.899 8.61421C146.954 8.3265 146.982 8.02954 146.982 7.72589C146.982 5.12714 144.905 3.01923 142.335 3.00013L132.777 3Z" fill="#AAAAAA"/>
<path fill-rule="evenodd" clip-rule="evenodd" d="M126.526 8.53956L126.529 8.5324L126.529 8.53251C126.573 8.45407 126.656 8.40102 126.751 8.40102C126.888 8.40102 127 8.51172 127.004 8.64972L127.004 8.64975V16.9289H131.228V3H127.004C126.469 3.018 125.863 3.41478 125.638 3.90185L122.277 11.1788C122.269 11.2085 122.256 11.2363 122.239 11.2612L122.238 11.2637L122.237 11.2635C122.186 11.3374 122.102 11.3858 122.006 11.3858C121.85 11.3858 121.724 11.2585 121.724 11.1015V3H117.5V16.9289H121.724V16.9273C122.254 16.8994 122.845 16.5071 123.067 16.0271L126.517 8.55833C126.52 8.55194 126.522 8.54568 126.526 8.53956Z" fill="#BDBDBD"/>
<path fill-rule="evenodd" clip-rule="evenodd" d="M110.754 8.77766L108.285 16.9289H105.246L102.776 8.77271C102.752 8.6421 102.639 8.54315 102.502 8.54315C102.349 8.54315 102.224 8.66883 102.224 8.82386C102.224 8.82504 102.224 8.82623 102.224 8.82741L102.224 16.9289H98V3H101.626H102.706C103.483 3 104.297 3.60888 104.524 4.3588L106.58 11.1463C106.682 11.4841 106.848 11.4837 106.951 11.1463L109.006 4.3588C109.234 3.60836 110.048 3 110.825 3L111.905 3H115.53V16.9289H111.306V8.82741C111.306 8.82623 111.306 8.82504 111.306 8.82386C111.306 8.66883 111.182 8.54315 111.028 8.54315C110.89 8.54315 110.775 8.64461 110.754 8.77766Z" fill="#BDBDBD"/>
</g>
<defs>
<clipPath id="clip0">
<rect width="46" height="14" fill="white" transform="translate(42 3)"/>
</clipPath>
<clipPath id="clip1">
<rect width="49" height="14" fill="white" transform="translate(98 3)"/>
</clipPath>
</defs>
</svg>
