<svg width="26" height="26" viewBox="0 0 26 26" fill="none" xmlns="http://www.w3.org/2000/svg">
<rect width="26" height="26" rx="7" fill="#EAEFF3"/>
<path opacity="0.6" d="M10.0361 6.5C10.3249 6.5 10.591 6.65665 10.7313 6.9092L11.7039 8.6612C11.8312 8.8906 11.8372 9.16806 11.7199 9.40274L10.7829 11.2768C10.7829 11.2768 11.0544 12.6728 12.1908 13.8092C13.3273 14.9456 14.7186 15.2124 14.7186 15.2124L16.5923 14.2756C16.8271 14.1582 17.1048 14.1642 17.3343 14.2918L19.0912 15.2686C19.3436 15.4089 19.5 15.6749 19.5 15.9636V17.9806C19.5 19.0078 18.5459 19.7497 17.5726 19.4213C15.5737 18.7468 12.4708 17.4626 10.5041 15.4959C8.53741 13.5292 7.25316 10.4263 6.57868 8.42739C6.25028 7.45411 6.99217 6.5 8.01934 6.5H10.0361Z" stroke="#414549" stroke-linejoin="round"/>
</svg>
