<?xml version="1.0" encoding="utf-8"?><svg xmlns="http://www.w3.org/2000/svg" xmlns:xlink="http://www.w3.org/1999/xlink"><symbol fill="none" viewBox="0 0 56 56" id="delivery" xmlns="http://www.w3.org/2000/svg"><g stroke="currentColor" stroke-width="1.6"><path d="M18.97 36.943h13.554a1.47 1.47 0 001.47-1.47l5.118-18.743a1.471 1.471 0 00-1.487-1.47H15.409a1.479 1.479 0 00-1.48 1.47L9.556 35.472a1.47 1.47 0 001.47 1.47h1.907"/><path d="M36.453 36.943h-3.037l4.375-15.13h7.193a.743.743 0 01.569.263l3.132 5.513a.708.708 0 01.175.463l-2.914 8.89h-3.15M16.021 41.186c1.793 0 3.246-1.473 3.246-3.29s-1.453-3.29-3.246-3.29-3.246 1.473-3.246 3.29 1.453 3.29 3.246 3.29z"/><path d="M39.681 41.186c1.793 0 3.247-1.473 3.247-3.29s-1.454-3.29-3.247-3.29c-1.792 0-3.246 1.473-3.246 3.29s1.453 3.29 3.246 3.29z"/><path d="M18.541 29.313H2.81m17.535-9.748H6.01h14.333zm-2.826 4.585H7.394h10.124z" stroke-linecap="round"/></g></symbol><symbol fill="none" viewBox="0 0 58 58" id="service" xmlns="http://www.w3.org/2000/svg"><path d="M22.672 43.37a.54.54 0 01.54.542.54.54 0 11-1.08 0c0-.302.24-.543.54-.543zm0-1.03a1.572 1.572 0 000 3.144c.862 0 1.566-.708 1.566-1.572 0-.864-.704-1.572-1.566-1.572zm15.142-9.549h5.29v11.752c0 .936-.382 1.8-1.038 2.373-.558.49-1.24.696-1.937.602-1.3-.181-2.315-1.49-2.315-3.079zm2.106-14.809h1.078v13.252H39.92zm-.3-6.875h1.712l.9 4.74-.668.577h-2.078l-.763-.6zm-.643-1.558a.78.78 0 00-.762.633l-1.106 5.816a.782.782 0 00.286.762l.972.763v13.711h-1.33a.781.781 0 00-.775.78v12.425c0 2.333 1.555 4.33 3.654 4.622.182.025.363.039.545.039a3.97 3.97 0 002.627-1.01c.999-.875 1.568-2.169 1.568-3.547v-12.53a.781.781 0 00-.775-.779h-1.33V17.627l1.035-.89a.78.78 0 00.258-.737l-1.108-5.818a.778.778 0 00-.761-.633zm-12.108 1.398c2.19 1.429 3.581 3.853 3.58 6.535a7.828 7.828 0 01-4.666 7.168.78.78 0 00-.465.713v19.653a2.607 2.607 0 01-2.601 2.613h-.088a2.607 2.607 0 01-2.602-2.613V25.359a.78.78 0 00-.459-.71c-2.723-1.22-4.555-3.917-4.666-6.864-.105-2.814 1.287-5.351 3.573-6.836v5.787c0 .895.35 1.742.98 2.375.63.634 1.47.988 2.361.989l1.711-.002c.892 0 1.737-.352 2.368-.987.63-.634.975-1.48.974-2.375zm-7.553-2.13a.777.777 0 00-.377.062c-3.538 1.557-5.734 5.08-5.587 8.965.125 3.367 2.125 6.43 5.123 7.98v19.19c0 2.298 1.865 4.173 4.154 4.173h.086c2.289 0 4.154-1.874 4.154-4.171V25.832A9.377 9.377 0 0032 17.482a9.391 9.391 0 00-5.594-8.603h-.002a.777.777 0 00-1.086.713v7.144c0 .484-.186.935-.525 1.276-.34.342-.786.529-1.266.529h-1.711a1.77 1.77 0 01-1.263-.53 1.791 1.791 0 01-.526-1.275V9.592a.779.779 0 00-.71-.776z" fill="currentColor"/></symbol><symbol fill="none" viewBox="0 0 56 56" id="warranty" xmlns="http://www.w3.org/2000/svg"><g stroke="currentColor" stroke-width="1.6"><path d="M17.672 37.306l4.614-2.978a1.286 1.286 0 011.005-.164c1.639.437 6.566 1.82 8.382 2.475 1.366.491 1.916 1.874 1.366 2.79-.745 1.213-1.88 1.092-2.697.855a2.121 2.121 0 01-.325-.121l-3.23-1.407m-9.162 7.26l-4.383-6.763a.75.75 0 01.201-1.013l2.769-1.82a.696.696 0 01.97.195l4.471 6.671a.75.75 0 01-.19 1.02l-2.85 1.959a.7.7 0 01-.988-.25v0z" stroke-linecap="round"/><path d="M21 42.403l1.57-.763 8.888 2.09a.788.788 0 00.542-.073c1.232-.684 6.597-3.695 9.239-5.278.214-.101.396-.246.528-.42a1.088 1.088 0 00.105-1.188 1.31 1.31 0 00-.448-.483 2.091 2.091 0 00-1.11-.407 2.184 2.184 0 00-1.175.24c-.924.439-3.492 2.054-3.492 2.054" stroke-linecap="round"/><path d="M33.563 9.663l-8.767 3.789a.482.482 0 00-.216.183.508.508 0 00-.08.277v8.078c0 1.963.492 3.892 1.428 5.598a11.141 11.141 0 003.91 4.133l3.902 2.404 3.845-2.4A11.137 11.137 0 0041.46 27.6a11.64 11.64 0 001.414-5.57v-8.583c0-.101-.03-.2-.085-.283a.48.48 0 00-.225-.182l-8.648-3.324a.461.461 0 00-.354.005v0z"/><path d="M28.875 22.099l3.48 2.401 6.145-7.875"/></g></symbol></svg>