<?xml version="1.0" encoding="utf-8"?><svg xmlns="http://www.w3.org/2000/svg" xmlns:xlink="http://www.w3.org/1999/xlink"><symbol fill="none" viewBox="0 0 56 56" id="delivery" xmlns="http://www.w3.org/2000/svg"><g stroke="currentColor" stroke-width="1.6"><path d="M18.97 36.943h13.554a1.47 1.47 0 001.47-1.47l5.118-18.743a1.471 1.471 0 00-1.487-1.47H15.409a1.479 1.479 0 00-1.48 1.47L9.556 35.472a1.47 1.47 0 001.47 1.47h1.907"/><path d="M36.453 36.943h-3.037l4.375-15.13h7.193a.743.743 0 01.569.263l3.132 5.513a.708.708 0 01.175.463l-2.914 8.89h-3.15M16.021 41.186c1.793 0 3.246-1.473 3.246-3.29s-1.453-3.29-3.246-3.29-3.246 1.473-3.246 3.29 1.453 3.29 3.246 3.29z"/><path d="M39.681 41.186c1.793 0 3.247-1.473 3.247-3.29s-1.454-3.29-3.247-3.29c-1.792 0-3.246 1.473-3.246 3.29s1.453 3.29 3.246 3.29z"/><path d="M18.541 29.313H2.81m17.535-9.748H6.01h14.333zm-2.826 4.585H7.394h10.124z" stroke-linecap="round"/></g></symbol><symbol fill="none" viewBox="0 0 56 56" id="warranty" xmlns="http://www.w3.org/2000/svg"><g stroke="currentColor" stroke-width="1.6"><path d="M17.672 37.306l4.614-2.978a1.286 1.286 0 011.005-.164c1.639.437 6.566 1.82 8.382 2.475 1.366.491 1.916 1.874 1.366 2.79-.745 1.213-1.88 1.092-2.697.855a2.121 2.121 0 01-.325-.121l-3.23-1.407m-9.162 7.26l-4.383-6.763a.75.75 0 01.201-1.013l2.769-1.82a.696.696 0 01.97.195l4.471 6.671a.75.75 0 01-.19 1.02l-2.85 1.959a.7.7 0 01-.988-.25v0z" stroke-linecap="round"/><path d="M21 42.403l1.57-.763 8.888 2.09a.788.788 0 00.542-.073c1.232-.684 6.597-3.695 9.239-5.278.214-.101.396-.246.528-.42a1.088 1.088 0 00.105-1.188 1.31 1.31 0 00-.448-.483 2.091 2.091 0 00-1.11-.407 2.184 2.184 0 00-1.175.24c-.924.439-3.492 2.054-3.492 2.054" stroke-linecap="round"/><path d="M33.563 9.663l-8.767 3.789a.482.482 0 00-.216.183.508.508 0 00-.08.277v8.078c0 1.963.492 3.892 1.428 5.598a11.141 11.141 0 003.91 4.133l3.902 2.404 3.845-2.4A11.137 11.137 0 0041.46 27.6a11.64 11.64 0 001.414-5.57v-8.583c0-.101-.03-.2-.085-.283a.48.48 0 00-.225-.182l-8.648-3.324a.461.461 0 00-.354.005v0z"/><path d="M28.875 22.099l3.48 2.401 6.145-7.875"/></g></symbol></svg>