<svg width="34" height="46" viewBox="0 0 34 46" fill="none" xmlns="http://www.w3.org/2000/svg">
<path d="M33.4604 21.1557C33.404 20.9157 33.2893 20.6932 33.1265 20.508C32.9636 20.3228 32.7576 20.1806 32.5267 20.094L21.7211 16.0419L24.4709 2.29268C24.5349 1.97265 24.4928 1.64049 24.3509 1.34658C24.2091 1.05266 23.9752 0.813025 23.6849 0.664017C23.3945 0.515009 23.0635 0.464759 22.742 0.520889C22.4205 0.577019 22.1261 0.736467 21.9034 0.975047L0.903425 23.475C0.735156 23.6553 0.613933 23.8743 0.550489 24.1126C0.487044 24.3509 0.483335 24.6012 0.53969 24.8413C0.596045 25.0814 0.710726 25.3039 0.873578 25.4891C1.03643 25.6743 1.24243 25.8164 1.47334 25.903L12.279 29.9552L9.52916 43.7044C9.46513 44.0244 9.50723 44.3566 9.64908 44.6505C9.79092 44.9445 10.0248 45.1841 10.3151 45.3331C10.6055 45.4821 10.9366 45.5324 11.2581 45.4762C11.5796 45.4201 11.874 45.2606 12.0967 45.022L33.0967 22.522C33.2649 22.3417 33.3861 22.1227 33.4496 21.8844C33.513 21.6461 33.5167 21.3958 33.4604 21.1557Z" fill="url(#paint0_linear)"/>
<defs>
<linearGradient id="paint0_linear" x1="17" y1="0.498535" x2="17" y2="45.4986" gradientUnits="userSpaceOnUse">
<stop stop-color="#FF0A16"/>
<stop offset="1" stop-color="#FF0A16" stop-opacity="0.7"/>
</linearGradient>
</defs>
</svg>
