<?xml version="1.0" encoding="UTF-8" standalone="no"?>
<svg
   xmlns:dc="http://purl.org/dc/elements/1.1/"
   xmlns:cc="http://creativecommons.org/ns#"
   xmlns:rdf="http://www.w3.org/1999/02/22-rdf-syntax-ns#"
   xmlns:svg="http://www.w3.org/2000/svg"
   xmlns="http://www.w3.org/2000/svg"
   version="1.1"
   viewBox="0 0 28 32.000232"
   height="32.000233"
   width="28">
  <path
     id="path2570"
     d="M 14,0 C 11.946446,0 9.8928944,0.44107223 7.9902344,1.3242188 4.1455929,3.1087995 1.3241545,6.5215865 0.359375,10.595703 -0.58222781,14.571725 0.34581807,18.76456 2.8769531,22 l 1.0859375,1.386719 c 0.5796167,0.740872 1.2207904,1.432705 1.9179688,2.068359 l 6.4863286,5.91211 c 0.924564,0.843158 2.341057,0.843165 3.265624,0 l 6.486329,-5.91211 c 0.697177,-0.635654 1.338351,-1.327488 1.917968,-2.068359 L 25.123047,22 C 27.654202,18.764576 28.582221,14.571749 27.640625,10.595703 26.675834,6.5215912 23.854407,3.1087996 20.009766,1.3242188 18.107105,0.44107227 16.053554,0 14,0 Z"
     style="fill:currentColor" />
  <path
     d="m 14.002522,5.471055 c -1.080989,-1e-6 -2.162043,0.2319663 -3.161596,0.6941369 l -0.05012,0.0234 a 2.053138,1.9968196 0 0 0 -0.0021,0 C 8.7931702,7.1112703 7.3370076,8.871865 6.8392607,10.965662 c -0.5036757,2.118439 0.032016,4.341997 1.4314391,6.026906 1.3847186,1.667109 3.4737482,2.647862 5.6856612,2.647862 h 0.09021 c 2.211851,0 4.300872,-0.980841 5.685661,-2.647862 1.399425,-1.684909 1.935115,-3.908467 1.43144,-6.026906 -0.497847,-2.0936203 -1.953765,-3.8543907 -3.94949,-4.7770697 a 2.053138,1.9968196 0 0 0 -0.0021,0 l -0.05012,-0.0234 C 16.162582,5.7029997 15.08351,5.4710553 14.00252,5.4710553 Z"
     style="fill:#ffffff" />
</svg>
