<svg width="182" height="50" viewBox="0 0 182 50" fill="none" xmlns="http://www.w3.org/2000/svg"><g clip-path="url(#clip0)"><path d="M23.589.41l19.004 10.97a3.057 3.057 0 011.528 2.647v21.944a3.058 3.058 0 01-1.528 2.647L23.589 49.59a3.057 3.057 0 01-3.057 0L1.528 38.62A3.057 3.057 0 010 35.972V14.028a3.057 3.057 0 011.528-2.647L20.532.41a3.057 3.057 0 013.057 0z" fill="#FF0A16"/><path fill-rule="evenodd" clip-rule="evenodd" d="M27.075 12.234H17.047s-2.865 0-2.865 2.906v21.797c0 2.883 2.865 2.907 2.865 2.907h10.027s2.865 0 2.865-2.907V15.141c0-2.907-2.864-2.907-2.864-2.907zm-.02 1.485h-9.988s-1.426-.045-1.426 1.45V36.91c0 1.45 1.427 1.45 1.427 1.45h9.985s1.427 0 1.427-1.45V15.168c0-1.45-1.426-1.45-1.426-1.45zm-7.037-3.563c-1.459 0-1.459 1.485-1.459 1.485h7.295s0-1.485-1.459-1.485h-4.377z" fill="#fff"/></g><path d="M71.413 26.205c0-.187-.07-.396-.208-.627l-3.809-6.087c1.1-.39 1.97-1.03 2.613-1.93.643-.898.961-1.944.961-3.138 0-1.084-.25-2.049-.752-2.902a5.244 5.244 0 00-2.08-1.988c-.88-.473-1.886-.708-3.014-.708h-4.342a.873.873 0 00-.903.907v16.331c0 .264.084.483.254.653.17.17.386.255.649.255a.871.871 0 00.906-.908V19.86h3.828l4.178 6.647c.093.155.203.27.325.348.125.077.28.116.466.116.28 0 .501-.071.671-.21a.682.682 0 00.257-.556zm-6.289-8.085h-3.436v-7.55h3.436c.787 0 1.491.16 2.112.485a3.588 3.588 0 011.449 1.37c.35.59.524 1.255.524 1.998 0 .715-.174 1.348-.524 1.908a3.604 3.604 0 01-1.462 1.313 4.608 4.608 0 01-2.099.476zm19.73-9.037a.873.873 0 00-.254.65v11.244c0 1.222.305 2.32.916 3.288.61.968 1.466 1.721 2.565 2.265 1.099.54 2.346.814 3.737.814 1.376 0 2.607-.274 3.69-.814 1.083-.544 1.932-1.297 2.542-2.265.61-.968.916-2.066.916-3.288V9.733a.878.878 0 00-.254-.65.886.886 0 00-.652-.258.873.873 0 00-.903.907v11.245c0 .898-.228 1.699-.685 2.403-.456.705-1.086 1.255-1.893 1.65-.803.396-1.726.592-2.76.592-1.055 0-1.99-.196-2.81-.591-.819-.396-1.459-.946-1.915-1.65-.456-.705-.684-1.506-.684-2.404V9.733a.878.878 0 00-.254-.65.884.884 0 00-.65-.258.886.886 0 00-.652.258zm41.433-.026a.817.817 0 00-.604-.232H112.85a.818.818 0 00-.604.232.821.821 0 00-.231.605.8.8 0 00.231.582.818.818 0 00.604.232h5.499v15.587c0 .248.09.464.267.64a.88.88 0 00.639.268c.264 0 .479-.09.65-.268a.896.896 0 00.257-.64V10.476h5.521c.248 0 .45-.077.604-.232a.796.796 0 00.232-.582.818.818 0 00-.232-.605zm25.245.743c-1.417-.804-2.998-1.206-4.746-1.206-1.765 0-3.349.402-4.757 1.206a8.706 8.706 0 00-3.307 3.324c-.797 1.409-1.196 2.998-1.196 4.761 0 1.766.399 3.359 1.196 4.774a8.673 8.673 0 003.307 3.337c1.408.804 2.992 1.206 4.757 1.206 1.748 0 3.329-.402 4.746-1.206a8.658 8.658 0 003.32-3.336c.797-1.416 1.193-3.009 1.193-4.775 0-1.763-.396-3.352-1.193-4.761a8.691 8.691 0 00-3.32-3.324zm-8.587 1.512c1.138-.666 2.417-1 3.841-1 1.407 0 2.68.334 3.818 1a7.21 7.21 0 012.68 2.729c.649 1.154.974 2.435.974 3.844 0 1.425-.325 2.715-.974 3.87a7.209 7.209 0 01-2.68 2.729c-1.138.666-2.411 1-3.818 1-1.424 0-2.703-.334-3.841-1a7.201 7.201 0 01-2.68-2.729c-.65-1.155-.974-2.445-.974-3.87 0-1.409.324-2.69.974-3.845a7.202 7.202 0 012.68-2.728zm28.771 15.391a.896.896 0 00.257-.64v-5.945l2.066-2.091 6.312 8.548c.171.264.425.396.765.396.232 0 .431-.09.592-.268a.876.876 0 00.244-.614c0-.17-.061-.357-.186-.56l-6.428-8.78 6.36-6.366c.199-.216.302-.467.302-.744a.812.812 0 00-.222-.582c-.147-.154-.353-.232-.613-.232-.264 0-.505.11-.72.325l-8.472 8.48V9.734a.88.88 0 00-.907-.907.87.87 0 00-.636.266.866.866 0 00-.267.64v16.331c0 .248.087.464.267.64a.87.87 0 00.636.268c.264 0 .479-.09.65-.268z" fill="#FF0A16"/><path d="M60.104 39.533h.418c.15 0 .225-.087.225-.26v-5.69h3.136v5.69c0 .173.078.26.229.26h.417c.151 0 .225-.087.225-.26v-6.201c0-.173-.074-.26-.225-.26h-4.425c-.151 0-.225.087-.225.26v6.202c0 .172.074.259.225.259zm6.27 1.873h.389c.135 0 .203-.07.203-.209v-1.963c0-.097 0-.193-.007-.286h.007c.167.206.353.369.562.485.209.12.488.18.836.18.604 0 1.063-.256 1.378-.768.312-.508.47-1.1.47-1.77 0-.675-.158-1.266-.47-1.774-.315-.512-.774-.768-1.378-.768-.348 0-.627.06-.836.18a1.955 1.955 0 00-.563.485h-.006l-.029-.372c-.01-.143-.067-.213-.177-.213h-.379c-.138 0-.206.07-.206.213v6.371c0 .14.068.21.206.21zm.592-3.793v-1.08c0-.468.109-.817.324-1.046.219-.23.489-.346.813-.346.46 0 .788.18.977.535.193.355.29.824.29 1.398 0 .575-.097 1.04-.29 1.396-.19.355-.517.535-.977.535a1.08 1.08 0 01-.813-.346c-.215-.23-.325-.578-.325-1.046zm4.017-.538c0 .73.19 1.338.566 1.817.375.481.925.72 1.651.72.724 0 1.276-.239 1.652-.72.376-.479.563-1.087.563-1.818 0-.734-.187-1.342-.563-1.82-.376-.482-.928-.72-1.651-.72-.727 0-1.276.238-1.652.72-.377.478-.566 1.086-.566 1.82zm.842 0c0-.658.125-1.143.376-1.459a1.22 1.22 0 011-.475c.414 0 .745.16.996.475.25.316.376.8.376 1.459 0 .654-.126 1.139-.376 1.454a1.21 1.21 0 01-.996.475 1.22 1.22 0 01-1-.474c-.25-.316-.376-.801-.376-1.456zm4.824 2.458h.389c.138 0 .206-.07.206-.21v-3.537c0-.097-.004-.19-.01-.283h.01l1.359 3.744c.07.19.151.286.244.286h.354c.093 0 .177-.097.244-.286l1.36-3.744h.01a4.03 4.03 0 00-.01.283v3.537c0 .14.07.21.205.21h.39c.137 0 .205-.07.205-.21v-4.497c0-.143-.068-.213-.206-.213h-.861c-.093 0-.16.06-.203.183l-1.038 3.092c-.022.067-.06.186-.119.362a6.356 6.356 0 00-.144.495h-.02a6.445 6.445 0 00-.144-.495 13.047 13.047 0 01-.116-.362l-1.038-3.092c-.045-.123-.112-.183-.206-.183h-.861c-.135 0-.203.07-.203.213v4.497c0 .14.068.21.203.21zm6.447 0h1.6c.695 0 1.17-.133 1.43-.396.261-.265.393-.614.393-1.053 0-.435-.132-.787-.392-1.05-.26-.265-.736-.398-1.43-.398H83.69v-1.81c0-.143-.071-.213-.206-.213h-.389c-.138 0-.206.07-.206.213v4.497c0 .14.068.21.206.21zm.595-.615v-1.67h.797c.42 0 .726.052.91.159.186.11.276.335.276.677 0 .346-.09.568-.277.675-.183.106-.488.16-.91.16h-.796zm3.811.615h.39c.134 0 .202-.07.202-.21v-4.497c0-.143-.068-.213-.203-.213h-.389c-.138 0-.205.07-.205.213v4.497c0 .14.067.21.205.21zm2.083 0h5.885c.138 0 .205-.07.205-.21v-4.497c0-.143-.067-.213-.206-.213h-.388c-.135 0-.206.07-.206.213v4.089h-1.948v-4.09c0-.142-.067-.212-.202-.212h-.392c-.135 0-.203.07-.203.213v4.089h-1.95v-4.09c0-.142-.068-.212-.203-.212h-.392c-.135 0-.203.07-.203.213v4.497c0 .14.068.21.203.21zm7.013.036c.064.03.199.043.404.043.508 0 .884-.279 1.125-.837.245-.561.367-1.418.367-2.574v-.97h1.555v4.092c0 .14.068.21.203.21h.392c.135 0 .202-.07.202-.21v-4.497c0-.143-.067-.213-.202-.213h-2.562c-.192 0-.286.07-.286.213v1.136c0 1.169-.08 1.966-.244 2.398-.16.429-.376.645-.65.645a.648.648 0 01-.18-.03c-.067-.017-.105.006-.118.066l-.084.389c-.012.066.013.113.078.14zm5.254-2.495c0 .775.18 1.389.537 1.85.36.46.916.688 1.671.688.582 0 1.006-.1 1.276-.299.27-.199.434-.345.492-.435.071-.11.071-.196 0-.259l-.267-.239c-.09-.08-.186-.056-.283.076-.087.117-.225.24-.411.36-.187.122-.456.182-.807.182-.331 0-.63-.116-.893-.352-.264-.236-.421-.658-.473-1.26h3.163c.122 0 .183-.069.183-.209 0-.923-.19-1.594-.572-2.013a1.867 1.867 0 00-1.443-.63c-.698 0-1.234.229-1.61.687-.376.462-.563 1.076-.563 1.854zm.826-.295c.045-.615.19-1.04.434-1.282a1.22 1.22 0 01.894-.362c.398 0 .7.162.906.491.206.332.315.714.328 1.153h-2.562zm4.615 2.754h.389c.135 0 .203-.07.203-.21v-2.05h2.195v2.05c0 .14.067.21.205.21h.389c.135 0 .203-.07.203-.21v-4.497c0-.143-.068-.213-.203-.213h-.389c-.138 0-.205.07-.205.213v1.83h-2.195v-1.83c0-.143-.068-.213-.203-.213h-.389c-.138 0-.205.07-.205.213v4.497c0 .14.067.21.205.21zm5.075 0h.392c.135 0 .203-.07.203-.21v-2.05h2.195v2.05c0 .14.067.21.202.21h.392c.135 0 .203-.07.203-.21v-4.497c0-.143-.068-.213-.203-.213h-.392c-.135 0-.202.07-.202.213v1.83h-2.195v-1.83c0-.143-.068-.213-.203-.213h-.392c-.135 0-.202.07-.202.213v4.497c0 .14.067.21.202.21zm4.615-1.313c0 .439.135.778.402 1.024.267.245.649.368 1.144.368.283 0 .537-.04.765-.116.228-.076.46-.21.701-.405h.006v.232c0 .14.061.21.177.21h.408c.138 0 .206-.07.206-.21v-2.906c0-.585-.135-1.043-.405-1.379-.267-.335-.717-.505-1.35-.505-.232 0-.463.027-.688.083-.225.053-.411.12-.562.2a1.879 1.879 0 00-.466.348c-.113.11-.135.206-.071.283l.238.282c.071.083.148.08.231-.017.106-.122.222-.225.341-.305a1.67 1.67 0 01.398-.193c.145-.046.338-.073.579-.073.382 0 .636.11.765.322.128.213.193.469.193.761v.319c-1.003.043-1.752.196-2.257.455-.504.26-.755.668-.755 1.223zm.826.02c0-.212.081-.401.244-.564.164-.166.376-.28.634-.349.26-.066.697-.123 1.308-.17v1.383c-.222.199-.437.322-.646.368a2.82 2.82 0 01-.662.073 1.81 1.81 0 01-.434-.05.526.526 0 01-.325-.225c-.08-.117-.119-.273-.119-.466zm4.374 1.293h.498c.094 0 .18-.057.258-.173l.8-1.176c.161-.242.308-.415.437-.518a.775.775 0 01.504-.156h.428v1.813c0 .14.067.21.202.21h.389c.138 0 .206-.07.206-.21v-4.497c0-.143-.068-.213-.206-.213h-1.571c-.695 0-1.173.116-1.434.349-.26.232-.389.568-.389 1.006 0 .382.097.685.29.904.192.22.552.385 1.08.495v.01c-.116.06-.248.16-.402.302a2.91 2.91 0 00-.351.382l-.858 1.196c-.131.183-.093.276.119.276zm.964-3.565c0-.285.094-.478.283-.584.187-.103.489-.157.907-.157h.771v1.671h-.778c-.318 0-.594-.06-.829-.182-.235-.12-.354-.372-.354-.748zm6.766 2.87c.096.133.266.293.514.485.251.193.659.29 1.224.29.743 0 1.289-.22 1.643-.662.353-.438.53-1.066.53-1.877 0-.813-.177-1.438-.53-1.88-.354-.442-.9-.66-1.643-.66-.443 0-.793.069-1.054.212-.257.143-.443.279-.559.412-.109.123-.122.222-.042.299l.254.232c.087.08.18.05.286-.086.084-.11.212-.216.389-.312.177-.1.418-.15.726-.15.399 0 .717.14.955.412.238.273.357.645.357 1.113h-2.012c-.138 0-.206.053-.206.163v.282c0 .11.068.163.206.163h2.031c-.016.618-.135 1.063-.354 1.329-.221.265-.546.401-.977.401-.363 0-.623-.053-.787-.159a1.229 1.229 0 01-.395-.395c-.084-.143-.177-.173-.28-.09l-.267.223c-.086.063-.09.15-.009.255zm4.075.731c.061.03.196.043.402.043.507 0 .883-.279 1.128-.837.241-.561.363-1.418.363-2.574v-.97h1.555v4.092c0 .14.068.21.203.21h.392c.135 0 .202-.07.202-.21v-4.497c0-.143-.067-.213-.202-.213h-2.562c-.189 0-.286.07-.286.213v1.136c0 1.169-.08 1.966-.241 2.398-.163.429-.379.645-.652.645a.654.654 0 01-.18-.03c-.067-.017-.106.006-.119.066l-.08.389c-.016.066.009.113.077.14zm5.251-2.495c0 .775.18 1.389.537 1.85.36.46.916.688 1.671.688.582 0 1.006-.1 1.276-.299.27-.199.434-.345.492-.435.071-.11.071-.196 0-.259l-.267-.239c-.09-.08-.183-.056-.279.076-.09.117-.225.24-.415.36-.186.122-.456.182-.807.182-.331 0-.63-.116-.893-.352-.26-.236-.418-.658-.469-1.26h3.159c.122 0 .186-.069.186-.209 0-.923-.193-1.594-.575-2.013a1.865 1.865 0 00-1.443-.63c-.697 0-1.234.229-1.61.687-.373.462-.563 1.076-.563 1.854zm.826-.295c.045-.615.19-1.04.434-1.282.248-.243.543-.362.894-.362.398 0 .7.162.906.491.206.332.315.714.328 1.153h-2.562zm4.615 2.754h.389c.135 0 .206-.07.206-.21v-2.05h.19c.167 0 .331.054.495.157.16.106.292.246.392.425l.848 1.505c.068.116.154.173.257.173h.447c.186 0 .225-.093.116-.276l-.907-1.525c-.16-.269-.305-.455-.424-.551a1.523 1.523 0 00-.44-.236v-.007c.132-.036.276-.136.427-.302.155-.163.261-.292.322-.382l.919-1.365c.122-.183.083-.276-.119-.276h-.411c-.11 0-.19.04-.241.123l-.765 1.236c-.081.126-.2.269-.36.435a.769.769 0 01-.563.249h-.183v-1.83c0-.143-.071-.213-.206-.213h-.389c-.134 0-.205.07-.205.213v4.497c0 .14.071.21.205.21zm3.986-4.289h1.427v4.08c0 .139.067.209.202.209h.392c.135 0 .203-.07.203-.21v-4.079h1.427c.138 0 .205-.053.205-.163v-.305c0-.107-.067-.163-.205-.163h-3.651c-.138 0-.206.056-.206.163v.305c0 .11.068.163.206.163zm4.849 6.162h.389c.135 0 .206-.07.206-.209v-1.963c0-.097-.003-.193-.01-.286h.01c.164.206.354.369.559.485.209.12.489.18.836.18.604 0 1.064-.256 1.379-.768.315-.508.469-1.1.469-1.77 0-.675-.154-1.266-.469-1.774-.315-.512-.775-.768-1.379-.768-.347 0-.627.06-.836.18a1.941 1.941 0 00-.559.485h-.01l-.029-.372c-.009-.143-.067-.213-.176-.213h-.38c-.138 0-.205.07-.205.213v6.371c0 .14.067.21.205.21zm.595-3.793v-1.08c0-.468.106-.817.321-1.046a1.08 1.08 0 01.817-.346c.459 0 .784.18.977.535.189.355.286.824.286 1.398 0 .575-.097 1.04-.286 1.396-.193.355-.518.535-.977.535-.328 0-.598-.117-.817-.346-.215-.23-.321-.578-.321-1.046zm4.014-.538c0 .73.19 1.338.566 1.817.376.481.925.72 1.652.72.726 0 1.276-.239 1.652-.72.376-.479.565-1.087.565-1.818 0-.734-.189-1.342-.565-1.82-.376-.482-.926-.72-1.652-.72-.727 0-1.276.238-1.652.72-.376.478-.566 1.086-.566 1.82zm.845 0c0-.658.126-1.143.376-1.459a1.21 1.21 0 01.997-.475c.414 0 .745.16.996.475.251.316.376.8.376 1.459 0 .654-.125 1.139-.376 1.454a1.21 1.21 0 01-.996.475 1.21 1.21 0 01-.997-.474c-.25-.316-.376-.801-.376-1.456zm4.821 2.458h.392c.135 0 .203-.07.203-.21v-2.05h2.195v2.05c0 .14.067.21.202.21h.389c.138 0 .206-.07.206-.21v-4.497c0-.143-.068-.213-.206-.213h-.389c-.135 0-.202.07-.202.213v1.83h-2.195v-1.83c0-.143-.068-.213-.203-.213h-.392c-.135 0-.202.07-.202.213v4.497c0 .14.067.21.202.21zm5.078 0h.55a.417.417 0 00.389-.23l2.076-3.72h.009a4.359 4.359 0 00-.009.282v3.458c0 .14.067.21.202.21h.392c.135 0 .203-.07.203-.21v-4.497c0-.143-.068-.213-.203-.213h-.549a.412.412 0 00-.389.23l-2.076 3.72h-.01c.007-.093.01-.186.01-.283v-3.454c0-.143-.068-.213-.206-.213h-.389c-.135 0-.206.07-.206.213v4.497c0 .14.071.21.206.21zm5.303 0h.389c.138 0 .206-.07.206-.21v-2.05h.189c.167 0 .331.054.495.157.164.106.296.246.396.425l.845 1.505c.067.116.154.173.26.173h.444c.186 0 .225-.093.119-.276l-.907-1.525c-.164-.269-.305-.455-.427-.551a1.478 1.478 0 00-.441-.236v-.007c.135-.036.277-.136.428-.302.154-.163.26-.292.321-.382l.919-1.365c.126-.183.087-.276-.115-.276h-.415c-.109 0-.189.04-.241.123l-.765 1.236a2.684 2.684 0 01-.36.435.754.754 0 01-.559.249h-.186v-1.83c0-.143-.068-.213-.206-.213h-.389c-.135 0-.202.07-.202.213v4.497c0 .14.067.21.202.21zm4.021-1.313c0 .439.135.778.401 1.024.267.245.65.368 1.145.368.282 0 .536-.04.764-.116.229-.076.46-.21.701-.405h.01v.232c0 .14.058.21.176.21h.405c.139 0 .206-.07.206-.21v-2.906c0-.585-.135-1.043-.405-1.379-.267-.335-.717-.505-1.35-.505a2.82 2.82 0 00-.687.083c-.225.053-.412.12-.563.2a1.897 1.897 0 00-.466.348c-.112.11-.135.206-.071.283l.238.282c.071.083.148.08.232-.017a1.8 1.8 0 01.34-.305c.119-.08.251-.143.399-.193.144-.046.337-.073.578-.073.383 0 .637.11.765.322.129.213.193.469.193.761v.319c-1.003.043-1.751.196-2.256.455-.505.26-.755.668-.755 1.223zm.826.02c0-.212.08-.401.244-.564a1.36 1.36 0 01.636-.349c.257-.066.694-.123 1.305-.17v1.383c-.222.199-.437.322-.646.368-.206.05-.427.073-.659.073-.151 0-.299-.016-.437-.05a.524.524 0 01-.324-.225c-.081-.117-.119-.273-.119-.466z" fill="#2E2E2E"/><defs><clipPath id="clip0"><path fill="#fff" d="M0 0h44.121v50H0z"/></clipPath></defs></svg>