<svg width="147" height="20" viewBox="0 0 147 20" fill="none" xmlns="http://www.w3.org/2000/svg"><path d="M20.304 2.124H11.66v15.609h8.644V2.123z" fill="#AAA"/><path d="M12.211 9.928a9.973 9.973 0 013.76-7.804A9.787 9.787 0 009.878 0C4.418 0 0 4.44 0 9.928s4.418 9.928 9.879 9.928c2.305 0 4.418-.8 6.091-2.123a9.932 9.932 0 01-3.759-7.805z" fill="#BDBDBD"/><path d="M31.97 9.928c0 5.488-4.418 9.928-9.878 9.928-2.305 0-4.418-.8-6.092-2.123a9.89 9.89 0 003.76-7.805A9.973 9.973 0 0016 2.124 9.787 9.787 0 0122.092 0c5.46 0 9.878 4.468 9.878 9.928z" fill="#D9D9D9"/><g clip-path="url(#clip0)"><path d="M61.933 16.798h-3.726l2.33-13.552h3.727l-2.33 13.552zM75.442 3.577A9.695 9.695 0 0072.099 3c-3.68 0-6.27 1.845-6.287 4.483-.03 1.947 1.856 3.028 3.266 3.677 1.442.663 1.932 1.096 1.932 1.687-.015.908-1.165 1.327-2.238 1.327-1.488 0-2.285-.216-3.496-.721l-.49-.217-.522 3.043c.874.374 2.484.706 4.156.72 3.91 0 6.455-1.816 6.485-4.627.015-1.543-.98-2.725-3.128-3.691-1.303-.62-2.101-1.038-2.101-1.673.015-.577.675-1.168 2.146-1.168a6.674 6.674 0 012.776.52l.337.143.507-2.926zm4.951 8.42c.307-.779 1.488-3.792 1.488-3.792-.016.029.306-.793.49-1.297l.26 1.167s.706 3.244.86 3.922h-3.098zm4.6-8.751H82.11c-.89 0-1.565.244-1.948 1.124l-5.535 12.428h3.91l.782-2.033h4.784c.107.476.445 2.033.445 2.033h3.45L84.993 3.246zm-29.899 0l-3.649 9.241-.399-1.874c-.674-2.163-2.79-4.513-5.151-5.68l3.342 11.85h3.94l5.858-13.537h-3.94z" fill="#BDBDBD"/><path d="M48.057 3.246H42.06l-.06.273c4.677 1.125 7.774 3.836 9.047 7.094l-1.304-6.228c-.214-.866-.874-1.11-1.686-1.14z" fill="#9C9C9C"/></g><g clip-path="url(#clip1)" fill-rule="evenodd" clip-rule="evenodd"><path d="M133.344 9.325V17h4.224v-4.548h4.787c2.015-.015 3.727-1.315 4.372-3.127h-13.383z" fill="#BDBDBD"/><path d="M132.777 3c.246 3.137 3.187 5.614 6.778 5.614h7.344c.055-.288.083-.584.083-.888 0-2.599-2.077-4.707-4.647-4.726h-9.558z" fill="#AAA"/><path d="M126.526 8.54l.003-.008a.255.255 0 01.222-.131c.137 0 .249.11.253.249v8.279h4.224V3h-4.224c-.535.018-1.141.415-1.366.902l-3.361 7.277a.271.271 0 01-.038.082l-.001.003h-.001a.28.28 0 01-.231.122.283.283 0 01-.282-.284V3H117.5v13.929h4.224v-.002c.53-.028 1.121-.42 1.343-.9l3.45-7.469.009-.018zm-15.772.238l-2.469 8.15h-3.039l-2.47-8.155a.279.279 0 00-.274-.23.28.28 0 00-.278.28v8.106H98V3h4.706c.777 0 1.591.609 1.818 1.359l2.056 6.787c.102.338.268.338.371 0l2.055-6.787c.228-.75 1.042-1.359 1.819-1.359h4.705v13.929h-4.224V8.824a.278.278 0 00-.552-.046z" fill="#BDBDBD"/></g><defs><clipPath id="clip0"><path fill="#fff" transform="translate(42 3)" d="M0 0h46v14H0z"/></clipPath><clipPath id="clip1"><path fill="#fff" transform="translate(98 3)" d="M0 0h49v14H0z"/></clipPath></defs></svg>