<svg width="26" height="26" viewBox="0 0 26 26" fill="none" xmlns="http://www.w3.org/2000/svg"><rect width="26" height="26" rx="7" fill="#EAEFF3"/><path opacity=".6" d="M10.036 6.5c.289 0 .555.157.695.41l.973 1.751c.127.23.133.507.016.742l-.937 1.874s.271 1.396 1.408 2.532c1.136 1.137 2.528 1.403 2.528 1.403l1.873-.936a.795.795 0 01.742.016l1.757.977c.253.14.409.406.409.695v2.017c0 1.027-.954 1.769-1.927 1.44-2-.674-5.102-1.958-7.069-3.925-1.967-1.967-3.25-5.07-3.925-7.069-.329-.973.413-1.927 1.44-1.927h2.017z" stroke="#414549" stroke-linejoin="round"/></svg>