<svg width="110" height="110" viewBox="0 0 110 110" fill="none" xmlns="http://www.w3.org/2000/svg">
<path d="M30 45.5C30 46.0523 28.6569 46.5 27 46.5C25.3431 46.5 24 46.0523 24 45.5M30 45.5C30 44.9477 28.6569 44.5 27 44.5C25.3431 44.5 24 44.9477 24 45.5M30 45.5V50M24 45.5V53C24.3333 53.3333 25.4 54 27 54C28.6 54 29.6667 53.3333 30 53V50M46 39C46 39.5523 44.6569 40 43 40C41.3431 40 40 39.5523 40 39M46 39C46 38.4477 44.6569 38 43 38C41.3431 38 40 38.4477 40 39M46 39V45.5C45.6667 45.8333 44.6 46.5 43 46.5C41.4 46.5 40.3333 45.8333 40 45.5V44.5M40 39V44.5M30 50C30.5 50 35.5 51 40 44.5" stroke="#414549"/>
<path d="M63 31C63 31.5523 61.6569 32 60 32C58.3431 32 57 31.5523 57 31M63 31C63 30.4477 61.6569 30 60 30C58.3431 30 57 30.4477 57 31M63 31V35.5M57 31V38.5C57.3333 38.8333 58.4 39.5 60 39.5C61.6 39.5 62.6667 38.8333 63 38.5V35.5M79 24.5C79 25.0523 77.6569 25.5 76 25.5C74.3431 25.5 73 25.0523 73 24.5M79 24.5C79 23.9477 77.6569 23.5 76 23.5C74.3431 23.5 73 23.9477 73 24.5M79 24.5V31C78.6667 31.3333 77.6 32 76 32C74.4 32 73.3333 31.3333 73 31V30M73 24.5V30M63 35.5C63.5 35.5 68.5 36.5 73 30" stroke="#414549"/>
<path d="M94 17C94 17.5523 92.6569 18 91 18C89.3431 18 88 17.5523 88 17M94 17C94 16.4477 92.6569 16 91 16C89.3431 16 88 16.4477 88 17M94 17V21.5M88 17V24.5C88.3333 24.8333 89.4 25.5 91 25.5C92.6 25.5 93.6667 24.8333 94 24.5V21.5M110 10.5C110 11.0523 108.657 11.5 107 11.5C105.343 11.5 104 11.0523 104 10.5M110 10.5C110 9.94772 108.657 9.5 107 9.5C105.343 9.5 104 9.94772 104 10.5M110 10.5V17C109.667 17.3333 108.6 18 107 18C105.4 18 104.333 17.3333 104 17V16M104 10.5V16M94 21.5C94.5 21.5 99.5 22.5 104 16" stroke="#414549"/>
<path d="M42 53C42 53.5523 40.6569 54 39 54C37.3431 54 36 53.5523 36 53M42 53C42 52.4477 40.6569 52 39 52C37.3431 52 36 52.4477 36 53M42 53V57.5M36 53V60.5C36.3333 60.8333 37.4 61.5 39 61.5C40.6 61.5 41.6667 60.8333 42 60.5V57.5M58 46.5C58 47.0523 56.6569 47.5 55 47.5C53.3431 47.5 52 47.0523 52 46.5M58 46.5C58 45.9477 56.6569 45.5 55 45.5C53.3431 45.5 52 45.9477 52 46.5M58 46.5V53C57.6667 53.3333 56.6 54 55 54C53.4 54 52.3333 53.3333 52 53V52M52 46.5V52M42 57.5C42.5 57.5 47.5 58.5 52 52" stroke="#414549"/>
<path d="M75 38.5C75 39.0523 73.6569 39.5 72 39.5C70.3431 39.5 69 39.0523 69 38.5M75 38.5C75 37.9477 73.6569 37.5 72 37.5C70.3431 37.5 69 37.9477 69 38.5M75 38.5V43M69 38.5V46C69.3333 46.3333 70.4 47 72 47C73.6 47 74.6667 46.3333 75 46V43M91 32C91 32.5523 89.6569 33 88 33C86.3431 33 85 32.5523 85 32M91 32C91 31.4477 89.6569 31 88 31C86.3431 31 85 31.4477 85 32M91 32V38.5C90.6667 38.8333 89.6 39.5 88 39.5C86.4 39.5 85.3333 38.8333 85 38.5V37.5M85 32V37.5M75 43C75.5 43 80.5 44 85 37.5" stroke="#414549"/>
<path d="M106 24.5C106 25.0523 104.657 25.5 103 25.5C101.343 25.5 100 25.0523 100 24.5M106 24.5C106 23.9477 104.657 23.5 103 23.5C101.343 23.5 100 23.9477 100 24.5M106 24.5V29M100 24.5V32C100.333 32.3333 101.4 33 103 33C104.6 33 105.667 32.3333 106 32V29M122 18C122 18.5523 120.657 19 119 19C117.343 19 116 18.5523 116 18M122 18C122 17.4477 120.657 17 119 17C117.343 17 116 17.4477 116 18M122 18V24.5C121.667 24.8333 120.6 25.5 119 25.5C117.4 25.5 116.333 24.8333 116 24.5V23.5M116 18V23.5M106 29C106.5 29 111.5 30 116 23.5" stroke="#414549"/>
<path d="M55 60C55 60.5523 53.6569 61 52 61C50.3431 61 49 60.5523 49 60M55 60C55 59.4477 53.6569 59 52 59C50.3431 59 49 59.4477 49 60M55 60V64.5M49 60V67.5C49.3333 67.8333 50.4 68.5 52 68.5C53.6 68.5 54.6667 67.8333 55 67.5V64.5M71 53.5C71 54.0523 69.6569 54.5 68 54.5C66.3431 54.5 65 54.0523 65 53.5M71 53.5C71 52.9477 69.6569 52.5 68 52.5C66.3431 52.5 65 52.9477 65 53.5M71 53.5V60C70.6667 60.3333 69.6 61 68 61C66.4 61 65.3333 60.3333 65 60V59M65 53.5V59M55 64.5C55.5 64.5 60.5 65.5 65 59" stroke="#414549"/>
<path d="M88 45.5C88 46.0523 86.6569 46.5 85 46.5C83.3431 46.5 82 46.0523 82 45.5M88 45.5C88 44.9477 86.6569 44.5 85 44.5C83.3431 44.5 82 44.9477 82 45.5M88 45.5V50M82 45.5V53C82.3333 53.3333 83.4 54 85 54C86.6 54 87.6667 53.3333 88 53V50M104 39C104 39.5523 102.657 40 101 40C99.3431 40 98 39.5523 98 39M104 39C104 38.4477 102.657 38 101 38C99.3431 38 98 38.4477 98 39M104 39V45.5C103.667 45.8333 102.6 46.5 101 46.5C99.4 46.5 98.3333 45.8333 98 45.5V44.5M98 39V44.5M88 50C88.5 50 93.5 51 98 44.5" stroke="#414549"/>
<path d="M68 68C68 68.5523 66.6569 69 65 69C63.3431 69 62 68.5523 62 68M68 68C68 67.4477 66.6569 67 65 67C63.3431 67 62 67.4477 62 68M68 68V72.5M62 68V75.5C62.3333 75.8333 63.4 76.5 65 76.5C66.6 76.5 67.6667 75.8333 68 75.5V72.5M84 61.5C84 62.0523 82.6569 62.5 81 62.5C79.3431 62.5 78 62.0523 78 61.5M84 61.5C84 60.9477 82.6569 60.5 81 60.5C79.3431 60.5 78 60.9477 78 61.5M84 61.5V68C83.6667 68.3333 82.6 69 81 69C79.4 69 78.3333 68.3333 78 68V67M78 61.5V67M68 72.5C68.5 72.5 73.5 73.5 78 67" stroke="#414549"/>
<path d="M101 53.5C101 54.0523 99.6569 54.5 98 54.5C96.3431 54.5 95 54.0523 95 53.5M101 53.5C101 52.9477 99.6569 52.5 98 52.5C96.3431 52.5 95 52.9477 95 53.5M101 53.5V58M95 53.5V61C95.3333 61.3333 96.4 62 98 62C99.6 62 100.667 61.3333 101 61V58M117 47C117 47.5523 115.657 48 114 48C112.343 48 111 47.5523 111 47M117 47C117 46.4477 115.657 46 114 46C112.343 46 111 46.4477 111 47M117 47V53.5C116.667 53.8333 115.6 54.5 114 54.5C112.4 54.5 111.333 53.8333 111 53.5V52.5M111 47V52.5M101 58C101.5 58 106.5 59 111 52.5" stroke="#414549"/>
<path d="M82 76C82 76.5523 80.6569 77 79 77C77.3431 77 76 76.5523 76 76M82 76C82 75.4477 80.6569 75 79 75C77.3431 75 76 75.4477 76 76M82 76V80.5M76 76V83.5C76.3333 83.8333 77.4 84.5 79 84.5C80.6 84.5 81.6667 83.8333 82 83.5V80.5M98 69.5C98 70.0523 96.6569 70.5 95 70.5C93.3431 70.5 92 70.0523 92 69.5M98 69.5C98 68.9477 96.6569 68.5 95 68.5C93.3431 68.5 92 68.9477 92 69.5M98 69.5V76C97.6667 76.3333 96.6 77 95 77C93.4 77 92.3333 76.3333 92 76V75M92 69.5V75M82 80.5C82.5 80.5 87.5 81.5 92 75" stroke="#414549"/>
<path d="M115 61.5C115 62.0523 113.657 62.5 112 62.5C110.343 62.5 109 62.0523 109 61.5M115 61.5C115 60.9477 113.657 60.5 112 60.5C110.343 60.5 109 60.9477 109 61.5M115 61.5V66M109 61.5V69C109.333 69.3333 110.4 70 112 70C113.6 70 114.667 69.3333 115 69V66M131 55C131 55.5523 129.657 56 128 56C126.343 56 125 55.5523 125 55M131 55C131 54.4477 129.657 54 128 54C126.343 54 125 54.4477 125 55M131 55V61.5C130.667 61.8333 129.6 62.5 128 62.5C126.4 62.5 125.333 61.8333 125 61.5V60.5M125 55V60.5M115 66C115.5 66 120.5 67 125 60.5" stroke="#414549"/>
<path d="M1 122V48.9386C1.97774 48.5366 2.97827 48.1254 4 47.7055M79 97.5L182 44.5L108 1C107.219 1 47.0419 30.0162 4 47.7055M79 97.5V122M79 97.5L77 93C51.8333 77.3333 4.4 48.2919 4 47.7055" stroke="#414549"/>
<path d="M1 122V48.9386C1.97774 48.5366 2.97827 48.1254 4 47.7055C47.0419 30.0162 107.219 1 108 1L182 44.5" stroke="#414549" stroke-width="1.6"/>
</svg>
