<svg width="191" height="202" viewBox="0 0 191 202" fill="none" xmlns="http://www.w3.org/2000/svg">
<path d="M192 63C191.808 62.9038 187.484 60.4527 180.527 56.5M59.5 12L83 1C88.3242 4.03185 94.4402 7.51428 101 11.249M59.5 12L50 6L12 29.5V32.5M59.5 12L79.5 22.5L101 11.249M12 40L1 46.5M12 40L71 72.5H75.5L97.5 86M12 40V32.5M1 46.5V54L6 57M1 46.5L188 152.5L191.5 150.5M6 57V121L8 125M6 57L188 159.5M8 125L5.5 128M8 125L154 204M5.5 128L4.5 134.5L17 148L116.5 204M5.5 128L17 140L132 204M101 11.249C118.04 20.9503 138.073 32.3538 155 41.984M188 159.5L194 156M188 159.5V204M180.527 56.5L121.5 95.5M180.527 56.5C173.95 52.7632 165.019 47.6843 155 41.984M121.5 95.5V102.5L188 139M121.5 95.5L188 132M188 139L191.5 137M188 139V132M188 132L191.5 129.5M155 41.984V49.5L97.5 86M155 41.984L97.5 78.5M97.5 86V78.5M97.5 78.5L75.5 65H71L12 32.5" stroke="#414549"/>
<path d="M192 63C191.808 62.9038 187.484 60.4527 180.527 56.5C173.95 52.7632 165.019 47.6843 155 41.984C138.073 32.3538 118.04 20.9503 101 11.249C94.4402 7.51428 88.3242 4.03185 83 1L59.5 12L50 6L12 29.5V32.5V40L1 46.5V54L6 57V121L8 125L5.5 128L4.5 134.5L17 148L116.5 204" stroke="#414549" stroke-width="1.6"/>
<path d="M81.5 36.5C81.5 38.6609 79.5361 40.5 77 40.5C74.4639 40.5 72.5 38.6609 72.5 36.5C72.5 34.3391 74.4639 32.5 77 32.5C79.5361 32.5 81.5 34.3391 81.5 36.5Z" stroke="#414549"/>
<path d="M51.5 17.5C51.5 19.62 49.3599 21.5 46.5 21.5C43.6401 21.5 41.5 19.62 41.5 17.5C41.5 15.38 43.6401 13.5 46.5 13.5C49.3599 13.5 51.5 15.38 51.5 17.5Z" stroke="#414549"/>
<path d="M87.5 14C87.5 15.1461 86.7553 16.2594 85.3919 17.1115C84.0354 17.9593 82.1304 18.5 80 18.5C77.8696 18.5 75.9646 17.9593 74.6081 17.1115C73.2447 16.2594 72.5 15.1461 72.5 14C72.5 12.8539 73.2447 11.7406 74.6081 10.8885C75.9646 10.0407 77.8696 9.5 80 9.5C82.1304 9.5 84.0354 10.0407 85.3919 10.8885C86.7553 11.7406 87.5 12.8539 87.5 14Z" stroke="#414549"/>
<path d="M117.5 56.5C117.5 58.6609 115.536 60.5 113 60.5C110.464 60.5 108.5 58.6609 108.5 56.5C108.5 54.3391 110.464 52.5 113 52.5C115.536 52.5 117.5 54.3391 117.5 56.5Z" stroke="#414549"/>
<path d="M143.5 71.5C143.5 73.62 141.36 75.5 138.5 75.5C135.64 75.5 133.5 73.62 133.5 71.5C133.5 69.38 135.64 67.5 138.5 67.5C141.36 67.5 143.5 69.38 143.5 71.5Z" stroke="#414549"/>
<path d="M174.5 91.5C174.5 93.62 172.36 95.5 169.5 95.5C166.64 95.5 164.5 93.62 164.5 91.5C164.5 89.38 166.64 87.5 169.5 87.5C172.36 87.5 174.5 89.38 174.5 91.5Z" stroke="#414549"/>
</svg>
