<svg width="109" height="101" viewBox="0 0 109 101" fill="none" xmlns="http://www.w3.org/2000/svg">
<path d="M4.5 101V52.5M4.5 52.5L97.5 104.5L117.5 92.5M4.5 52.5L1 50.5V44M1 44L97.5 99L117.5 87.5M1 44L24 30M33 29.5C33 27.9 30 27.5 28.5 27.5C28.1972 27.5 27.8559 27.5132 27.5 27.5444M33 29.5C33 31.1 30 31.5 28.5 31.5C26.8333 31.5 24 31.1 24 29.5M33 29.5V38.5C32.5 39 31.3 40 28.5 40C25.7 40 24.3333 39 24 38.5V30M24 29.5V30M24 29.5C24 28.1907 25.8973 27.685 27.5 27.5444M111 31.5C110.6 31.5 74.8333 11.5 57 1.5L30.5 17.5M30.5 17.5V26M30.5 17.5L50 28.4006M111 62.5L107 60.264M30.5 26L27.5 27.5444M30.5 26L43.5 33M43.5 33L50 28.4006M43.5 33L28.5 44M50 28.4006L107 60.264M28.5 44V53L83 83.5M28.5 44C30.1 44.4 65.5 64.1667 83 74M83 83.5L99.5 73.5M83 83.5V74M104.5 70C106.167 70 109.5 70.4 109.5 72M104.5 70C102.833 70 99.5 70.4 99.5 72M104.5 70L107 69M109.5 72C109.5 73.6 106.167 74 104.5 74C102.833 74 99.5 73.6 99.5 72M109.5 72V80C108.833 80.8333 106.9 82 104.5 82C102.1 82 100.167 80.8333 99.5 80V73.5M99.5 72V73.5M107 60.264V69M107 60.264L83 74M107 69L112.5 72M13 44.5L17.5 47M92 88.5L96.5 91M92 91.5L96.5 88.5" stroke="#414549" stroke-linecap="round" stroke-linejoin="round"/>
<path d="M4.5 101V52.5L1 50.5V44L24 30V29.5C24 28.1907 25.8973 27.685 27.5 27.5444L30.5 26V17.5L57 1.5C74.8333 11.5 110.6 31.5 111 31.5" stroke="#414549" stroke-width="1.6" stroke-linecap="round" stroke-linejoin="round"/>
</svg>
