<?xml version="1.0" encoding="UTF-8" standalone="no"?>
<svg
   xmlns:dc="http://purl.org/dc/elements/1.1/"
   xmlns:cc="http://creativecommons.org/ns#"
   xmlns:rdf="http://www.w3.org/1999/02/22-rdf-syntax-ns#"
   xmlns:svg="http://www.w3.org/2000/svg"
   xmlns="http://www.w3.org/2000/svg"
   xmlns:sodipodi="http://sodipodi.sourceforge.net/DTD/sodipodi-0.dtd"
   xmlns:inkscape="http://www.inkscape.org/namespaces/inkscape"
   width="303"
   height="123"
   viewBox="0 0 303 123"
   version="1.1"
   id="svg1046"
   sodipodi:docname="4.svg"
   style="fill:none"
   inkscape:version="0.92.3 (2405546, 2018-03-11)">
  <metadata
     id="metadata1052">
    <rdf:RDF>
      <cc:Work
         rdf:about="">
        <dc:format>image/svg+xml</dc:format>
        <dc:type
           rdf:resource="http://purl.org/dc/dcmitype/StillImage" />
        <dc:title></dc:title>
      </cc:Work>
    </rdf:RDF>
  </metadata>
  <defs
     id="defs1050" />
  <sodipodi:namedview
     pagecolor="#ffffff"
     bordercolor="#666666"
     borderopacity="1"
     objecttolerance="10"
     gridtolerance="10"
     guidetolerance="10"
     inkscape:pageopacity="0"
     inkscape:pageshadow="2"
     inkscape:window-width="1920"
     inkscape:window-height="996"
     id="namedview1048"
     showgrid="false"
     inkscape:zoom="1.2085106"
     inkscape:cx="117.5"
     inkscape:cy="61.5"
     inkscape:window-x="-8"
     inkscape:window-y="-8"
     inkscape:window-maximized="1"
     inkscape:current-layer="svg1046" />
  <path
     d="M 1,23.5 30.0708,1.32736 C 30.3387,1.12305 30.6914,1.06735 31.0092,1.17918 L 228,70.5 M 1,23.5 V 29 m 0,-5.5 c 10.2902,3.6226 22.2111,7.8157 35,12.3098 M 228,70.5 200.072,91.6868 c -0.696,0.5276 -1.531,0.7073 -2.363,0.4439 C 186.144,88.47 100.152,58.3534 36,35.8098 M 228,70.5 229.5,76 m 0,0 -28.797,21.2438 c -1.065,0.7859 -2.451,0.9938 -3.7,0.5554 L 1,29 m 228.5,47 v 5.5 M 1,29 v 5 m 0,0 18,6.3182 M 1,34 V 50.5 L 7.5,54 v 78.5 m 191.5,-29 30.5,-22 m -30.5,22 -12.5,-4.3876 M 199,103.5 v 16.25 M 229.5,81.5 V 88 M 19,40.3182 V 144 M 19,40.3182 186.5,99.1124 m 0,0 V 136 m 43,-48 4,2.5 m -4,-2.5 -29.5,22 6,1 m 27.5,-20.5 v 10 l -4,3 m 4,-13 L 206,111 m 23.5,-7.5 V 133 m 0,-29.5 L 206,121 m 0,-10 v 10 m 0,0 -7,-1.25 m 7,1.25 v 15 m -7,0 V 119.75 M 36,35.8098 C 36,35 46.5,20.8165 65.5,13.3165 M 86.5701,26.2299 167.563,54.788 c 1.488,0.5249 1.811,2.4866 0.568,3.4603 l -13.903,10.8976 c -1.076,0.8434 -2.509,1.0788 -3.798,0.6242 L 69.4372,41.212 c -1.4886,-0.5249 -1.811,-2.4866 -0.5687,-3.4603 L 82.7724,26.8541 c 1.0761,-0.8434 2.5083,-1.0788 3.7977,-0.6242 z"
     id="path1030"
     inkscape:connector-curvature="0"
     style="stroke:#414549" />
  <path
     d="M 7.5,132.5 V 54 L 1,50.5 V 34 29 23.5 L 30.0708,1.32736 C 30.3387,1.12305 30.6914,1.06735 31.0092,1.17918 L 228,70.5 229.5,76 v 5.5 6.5 l 4,2.5 v 10 l -4,3 V 133"
     id="path1032"
     inkscape:connector-curvature="0"
     style="stroke:#414549;stroke-width:1.60000002" />
  <path
     d="m 116.5,52 c 0,0.2609 -0.224,0.6316 -0.895,0.967 -0.641,0.3204 -1.561,0.533 -2.605,0.533 -1.044,0 -1.964,-0.2126 -2.605,-0.533 C 109.724,52.6316 109.5,52.2609 109.5,52 c 0,-0.2609 0.224,-0.6316 0.895,-0.967 0.641,-0.3204 1.561,-0.533 2.605,-0.533 1.044,0 1.964,0.2126 2.605,0.533 0.671,0.3354 0.895,0.7061 0.895,0.967 z"
     id="path1034"
     inkscape:connector-curvature="0"
     style="stroke:#414549" />
  <path
     d="m 79.5,39 c 0,0.2609 -0.2245,0.6316 -0.8952,0.967 C 77.964,40.2874 77.0438,40.5 76,40.5 74.9562,40.5 74.036,40.2874 73.3952,39.967 72.7245,39.6316 72.5,39.2609 72.5,39 c 0,-0.2609 0.2245,-0.6316 0.8952,-0.967 C 74.036,37.7126 74.9562,37.5 76,37.5 c 1.0438,0 1.964,0.2126 2.6048,0.533 C 79.2755,38.3684 79.5,38.7391 79.5,39 Z"
     id="path1036"
     inkscape:connector-curvature="0"
     style="stroke:#414549" />
  <path
     d="m 152.5,65 c 0,0.2609 -0.224,0.6316 -0.895,0.967 -0.641,0.3204 -1.561,0.533 -2.605,0.533 -1.044,0 -1.964,-0.2126 -2.605,-0.533 C 145.724,65.6316 145.5,65.2609 145.5,65 c 0,-0.2609 0.224,-0.6316 0.895,-0.967 0.641,-0.3204 1.561,-0.533 2.605,-0.533 1.044,0 1.964,0.2126 2.605,0.533 0.671,0.3354 0.895,0.7061 0.895,0.967 z"
     id="path1038"
     inkscape:connector-curvature="0"
     style="stroke:#414549" />
  <path
     d="m 127.5,44 c 0,0.2609 -0.224,0.6316 -0.895,0.967 -0.641,0.3204 -1.561,0.533 -2.605,0.533 -1.044,0 -1.964,-0.2126 -2.605,-0.533 C 120.724,44.6316 120.5,44.2609 120.5,44 c 0,-0.2609 0.224,-0.6316 0.895,-0.967 0.641,-0.3204 1.561,-0.533 2.605,-0.533 1.044,0 1.964,0.2126 2.605,0.533 0.671,0.3354 0.895,0.7061 0.895,0.967 z"
     id="path1040"
     inkscape:connector-curvature="0"
     style="stroke:#414549" />
  <path
     d="m 90.5,31 c 0,0.2609 -0.2245,0.6316 -0.8952,0.967 C 88.964,32.2874 88.0438,32.5 87,32.5 85.9562,32.5 85.036,32.2874 84.3952,31.967 83.7245,31.6316 83.5,31.2609 83.5,31 c 0,-0.2609 0.2245,-0.6316 0.8952,-0.967 C 85.036,29.7126 85.9562,29.5 87,29.5 c 1.0438,0 1.964,0.2126 2.6048,0.533 C 90.2755,30.3684 90.5,30.7391 90.5,31 Z"
     id="path1042"
     inkscape:connector-curvature="0"
     style="stroke:#414549" />
  <path
     d="m 163.5,57 c 0,0.2609 -0.224,0.6316 -0.895,0.967 -0.641,0.3204 -1.561,0.533 -2.605,0.533 -1.044,0 -1.964,-0.2126 -2.605,-0.533 C 156.724,57.6316 156.5,57.2609 156.5,57 c 0,-0.2609 0.224,-0.6316 0.895,-0.967 0.641,-0.3204 1.561,-0.533 2.605,-0.533 1.044,0 1.964,0.2126 2.605,0.533 0.671,0.3354 0.895,0.7061 0.895,0.967 z"
     id="path1044"
     inkscape:connector-curvature="0"
     style="stroke:#414549" />
</svg>
