<svg width="128" height="107" viewBox="0 0 128 107" fill="none" xmlns="http://www.w3.org/2000/svg">
<path d="M1 36V36C1 33.0319 1.61213 30.0957 2.79813 27.3749L6 20.0294M1 36V114.5H98M1 36V34.8787C1 29.2321 6.13945 24.9802 11.6861 26.0381L88.2481 40.6401C93.9067 41.7193 98 46.6671 98 52.4276V114.5M98 114.5H111M122.5 40.5L138.5 28M138.5 28V114.5H111M138.5 28V22.8449C138.5 19.4606 136.079 16.561 132.749 15.9572L50.3472 1.01625C48.4759 0.676946 46.5507 0.787283 44.7304 1.33817L14.8083 10.3935C11.4406 11.4127 8.68984 13.8586 7.28387 17.0841L6 20.0294M122.5 45.5L138.5 33M122.5 50.5L138.5 38M122.5 55.5L138.5 43M122.5 60.5L138.5 48M122.5 65.5L138.5 53M111 114.5V43.0296C111 37.2236 106.843 32.2504 101.13 31.2201L14.3464 15.5705C10.8671 14.943 7.41269 16.7885 6 20.0294V20.0294M56.5 57.3179V81.7773C56.5 82.4093 55.9211 82.8828 55.3016 82.7575L15.3016 74.6622C14.8353 74.5679 14.5 74.1579 14.5 73.6821V49.2227C14.5 48.5907 15.0789 48.1172 15.6984 48.2425L55.6984 56.3378C56.1647 56.4321 56.5 56.8421 56.5 57.3179ZM90.5 53.1415V98.6508C90.5 99.6037 89.623 100.315 88.6905 100.118L9.08738 83.3347C8.16218 83.1396 7.5 82.3233 7.5 81.3777V37.4367C7.5 36.1756 8.65302 35.2292 9.88996 35.4751L88.89 51.1799C89.8259 51.366 90.5 52.1873 90.5 53.1415Z" stroke="#414549"/>
<path d="M138.5 114.5V28V22.8449C138.5 19.4606 136.079 16.561 132.749 15.9572L50.3472 1.01625C48.4759 0.676946 46.5507 0.787283 44.7304 1.33817L14.8083 10.3935C11.4406 11.4127 8.68984 13.8586 7.28387 17.0841L6 20.0294L2.79813 27.3749C1.61213 30.0957 1 33.0319 1 36V36V114.5" stroke="#414549" stroke-width="1.6"/>
<path d="M77 74C77 75.933 75.433 77.5 73.5 77.5C71.567 77.5 70 75.933 70 74C70 72.067 71.567 70.5 73.5 70.5C75.433 70.5 77 72.067 77 74Z" stroke="#414549"/>
</svg>
