<svg width="157" height="122" viewBox="0 0 157 122" fill="none" xmlns="http://www.w3.org/2000/svg">
<path d="M52.4349 52.245C52.9693 50.1016 56.6655 47.3331 58.4468 46.2167L78.4863 22.7734L104.498 4.67499C108.486 1.9003 113.822 2.07033 117.625 5.09329L165.992 43.5375M52.4349 52.245L45.0871 56.2638M52.4349 52.245C52.4349 54.9242 55.552 56.0405 57.1106 56.2638M45.0871 56.2638C43.0831 56.0405 38.5408 55.9959 36.4033 57.6034C34.2658 59.211 34.3993 62.2921 34.3993 62.2921M45.0871 56.2638C46.7599 56.9463 49.2185 58.6122 48.6916 60.749M34.3993 62.2921V68.9902M34.3993 62.2921C34.8446 64.0782 37.3383 67.1147 43.7509 64.9713C46.9977 63.4687 48.3769 62.0249 48.6916 60.749M34.3993 68.9902C33.5086 69.4367 31.8607 70.9996 32.3951 73.6788M34.3993 68.9902L63.2336 98.5185C64.8753 100.2 65.7944 102.456 65.7944 104.806V114.537M32.3951 73.6788C31.7271 73.9021 30.3911 74.7505 30.3911 76.358L7.67969 88.4146M32.3951 73.6788L59.9637 102.551C61.5624 104.226 62.4545 106.451 62.4545 108.766V113.867M7.67969 88.4146C6.34372 86.4051 1 86.4051 1 93.773C1 101.141 27.0514 127.933 27.0514 127.933C29.7233 130.389 35.3343 133.694 36.4031 127.263M7.67969 88.4146L33.4554 116.61C35.7563 119.127 36.8776 122.504 36.5393 125.898L36.4031 127.263M36.4031 127.263L62.4545 113.867M62.4545 113.867C63.1225 114.314 64.7256 115.073 65.7944 114.537M65.7944 114.537C66.8632 114.001 68.9116 113.867 69.8023 113.867L73.1422 116.546M73.1422 116.546C73.1422 116.546 73.1422 121.235 75.8141 122.575C79.7556 124.551 83.3846 122.575 84.4979 121.905C85.1659 121.458 86.5019 120.029 86.5019 117.886M73.1422 116.546C73.1422 116.011 72.9196 104.49 73.1422 99.1315M86.5019 117.886L94.5177 113.197C96.0763 113.421 99.8615 113.465 102.533 111.858C105.205 110.25 104.537 107.839 104.537 107.839C109.881 107.169 120.435 104.088 119.901 97.1221L140.609 86.4051L165.912 62.3016C166.832 61.4249 167.45 60.2785 167.677 59.0278L169.14 50.9604C169.662 48.0801 168.426 45.1643 165.992 43.5375V43.5375M86.5019 117.886C86.6037 112.304 86.2118 100.203 86.5019 99.1315M73.8102 38.8488C72.6969 38.179 69.5351 37.6432 65.7944 40.8582C62.0537 44.0733 63.3451 47.5563 64.4584 48.8959L66.6802 50.9054M73.8102 38.8488L82.494 26.7923L106.213 9.23762C108.768 7.3463 112.277 7.41461 114.757 9.40396L162.032 47.3267C163.033 48.1303 163.029 49.6562 162.023 50.454L135.265 71.6694L117.897 78.3675C118.12 81.7165 116.828 88.2806 109.881 87.7448C104.525 87.3316 101.207 84.2375 99.5604 81.7165M73.8102 38.8488V49.5657M73.8102 57.3539L98.5256 79.7071C98.7295 80.2695 99.0713 80.9677 99.5604 81.7165M73.8102 57.3539V49.5657M73.8102 57.3539L66.6802 50.9054M73.8102 49.5657L83.162 36.1696L94.5177 27.4621L106.663 14.7303C108.103 13.2206 110.462 13.0714 112.08 14.3876L158.644 52.245M73.1422 99.1315C73.1422 95.3806 77.1501 93.9963 79.1541 93.773C82.6921 93.3788 86.5019 95.1126 86.5019 99.1315M73.1422 99.1315C73.1422 102.882 77.1501 103.82 79.1541 103.82C81.826 103.82 86.5019 102.347 86.5019 99.1315M86.5019 99.1315C87.0363 99.1315 93.8497 94.9727 97.1896 92.8932M99.5604 81.7165C96.9969 81.7165 91.439 83.085 91.644 87.7448M165.992 43.5375L166.68 44.1623C168.394 45.7203 168.431 48.4047 166.759 50.0089L138.605 77.0278L107.877 91.7636C104.975 92.6493 100.642 93.3916 97.1896 92.8932M97.1896 92.8932C94.55 92.5122 92.4246 91.406 91.8458 89.0844C91.7275 88.6102 91.6624 88.1642 91.644 87.7448M81.826 93.773L91.644 87.7448M48.6916 60.749L57.1106 56.2638M57.1106 56.2638C57.7786 56.2638 64.2261 57.6034 66.6802 50.9054" stroke="#414549"/>
<path d="M169.137 50.9745L167.677 59.0278C167.45 60.2785 166.832 61.4249 165.912 62.3016L140.609 86.4051L119.901 97.1221C120.435 104.088 109.881 107.169 104.537 107.839C104.537 107.839 105.205 110.25 102.533 111.858C99.8615 113.465 96.0763 113.421 94.5177 113.197L86.5019 117.886C86.5019 120.029 85.1659 121.458 84.4979 121.905C83.3846 122.575 79.7556 124.551 75.8141 122.575C73.1422 121.235 73.1422 116.546 73.1422 116.546L69.8023 113.867C68.9116 113.867 66.8632 114.001 65.7944 114.537C64.7256 115.073 63.1225 114.314 62.4545 113.867L36.4031 127.263C35.3343 133.694 29.7233 130.389 27.0514 127.933C27.0514 127.933 1 101.141 1 93.773C1 86.4051 6.5 87 7.67969 88.4146L30.3911 76.358C30.3911 74.7505 31.7271 73.9021 32.3951 73.6788C31.8607 70.9996 33.5086 69.4367 34.3993 68.9902V62.2921C34.3993 62.2921 34.2658 59.211 36.4033 57.6034C38.5408 55.9959 43.0831 56.0405 45.0871 56.2638L52.4349 52.245C52.9693 50.1016 56.6655 47.333 58.4468 46.2167L78.4863 22.7734L104.502 4.6726C108.488 1.89904 113.821 2.06768 117.625 5.08753L166 43.5C168.432 45.1517 169.662 48.0818 169.137 50.9745Z" stroke="#414549" stroke-width="1.6"/>
<path d="M43.5 60C43.5 60.3331 43.2975 60.6959 42.844 60.9982C42.394 61.2982 41.7435 61.5 41 61.5C40.2565 61.5 39.606 61.2982 39.156 60.9982C38.7025 60.6959 38.5 60.3331 38.5 60C38.5 59.6669 38.7025 59.3041 39.156 59.0018C39.606 58.7018 40.2565 58.5 41 58.5C41.7435 58.5 42.394 58.7018 42.844 59.0018C43.2975 59.3041 43.5 59.6669 43.5 60Z" stroke="#414549"/>
<path d="M82.5 98.5C82.5 98.987 82.2245 99.475 81.6843 99.8609C81.145 100.246 80.3743 100.5 79.5 100.5C78.6257 100.5 77.855 100.246 77.3157 99.8609C76.7755 99.475 76.5 98.987 76.5 98.5C76.5 98.013 76.7755 97.525 77.3157 97.1391C77.855 96.7539 78.6257 96.5 79.5 96.5C80.3743 96.5 81.145 96.7539 81.6843 97.1391C82.2245 97.525 82.5 98.013 82.5 98.5Z" stroke="#414549"/>
<path d="M8.5 96C8.5 97.093 8.49575 97.7838 8.35153 98.3045C8.22413 98.7644 7.98433 99.0956 7.41662 99.4241C7.24208 99.5251 7.08916 99.5223 6.91474 99.4336C6.71348 99.3312 6.48135 99.1067 6.2568 98.7501C5.80989 98.0403 5.5 96.9766 5.5 96C5.5 94.907 5.50434 94.2163 5.64867 93.6956C5.77617 93.2357 6.01612 92.9045 6.58408 92.5759C6.7588 92.4749 6.91174 92.4777 7.08606 92.5664C7.28724 92.6688 7.51925 92.8932 7.74368 93.2498C8.19036 93.9596 8.5 95.0233 8.5 96Z" stroke="#414549"/>
<path d="M14.5 104C14.5 105.093 14.4957 105.784 14.3515 106.304C14.2241 106.764 13.9843 107.096 13.4166 107.424C13.2421 107.525 13.0892 107.522 12.9147 107.434C12.7135 107.331 12.4813 107.107 12.2568 106.75C11.8099 106.04 11.5 104.977 11.5 104C11.5 102.907 11.5043 102.216 11.6487 101.696C11.7762 101.236 12.0161 100.905 12.5841 100.576C12.7588 100.475 12.9117 100.478 13.0861 100.566C13.2872 100.669 13.5193 100.893 13.7437 101.25C14.1904 101.96 14.5 103.023 14.5 104Z" stroke="#414549"/>
<path d="M21.5 112C21.5 113.093 21.4957 113.784 21.3515 114.304C21.2241 114.764 20.9843 115.096 20.4166 115.424C20.2421 115.525 20.0892 115.522 19.9147 115.434C19.7135 115.331 19.4813 115.107 19.2568 114.75C18.8099 114.04 18.5 112.977 18.5 112C18.5 110.907 18.5043 110.216 18.6487 109.696C18.7762 109.236 19.0161 108.905 19.5841 108.576C19.7588 108.475 19.9117 108.478 20.0861 108.566C20.2872 108.669 20.5193 108.893 20.7437 109.25C21.1904 109.96 21.5 111.023 21.5 112Z" stroke="#414549"/>
<path d="M29.5 120C29.5 121.093 29.4957 121.784 29.3515 122.304C29.2241 122.764 28.9843 123.096 28.4166 123.424C28.2421 123.525 28.0892 123.522 27.9147 123.434C27.7135 123.331 27.4813 123.107 27.2568 122.75C26.8099 122.04 26.5 120.977 26.5 120C26.5 118.907 26.5043 118.216 26.6487 117.696C26.7762 117.236 27.0161 116.905 27.5841 116.576C27.7588 116.475 27.9117 116.478 28.0861 116.566C28.2872 116.669 28.5193 116.893 28.7437 117.25C29.1904 117.96 29.5 119.023 29.5 120Z" stroke="#414549"/>
<path d="M52.5 56.5C52.5 56.5005 52.5 56.5013 52.4997 56.5027C52.4994 56.5042 52.4986 56.5073 52.4966 56.5122C52.4926 56.522 52.4829 56.5405 52.4611 56.5663C52.4155 56.6202 52.3299 56.6902 52.1906 56.7599C51.9117 56.8993 51.4915 57 51 57C50.5085 57 50.0883 56.8993 49.8094 56.7599C49.6701 56.6902 49.5845 56.6202 49.5389 56.5663C49.5171 56.5405 49.5074 56.522 49.5034 56.5122C49.5014 56.5073 49.5006 56.5042 49.5003 56.5027C49.5 56.5013 49.5 56.5005 49.5 56.5C49.5 56.4995 49.5 56.4987 49.5003 56.4973C49.5006 56.4958 49.5014 56.4927 49.5034 56.4878C49.5074 56.478 49.5171 56.4595 49.5389 56.4337C49.5845 56.3798 49.6701 56.3098 49.8094 56.2401C50.0883 56.1007 50.5085 56 51 56C51.4915 56 51.9117 56.1007 52.1906 56.2401C52.3299 56.3098 52.4155 56.3798 52.4611 56.4337C52.4829 56.4595 52.4926 56.478 52.4966 56.4878C52.4986 56.4927 52.4994 56.4958 52.4997 56.4973C52.5 56.4987 52.5 56.4995 52.5 56.5Z" stroke="#414549"/>
<path d="M90.5 93.5C90.5 93.5005 90.5 93.5013 90.4997 93.5027C90.4994 93.5042 90.4986 93.5073 90.4966 93.5122C90.4926 93.522 90.4829 93.5405 90.4611 93.5663C90.4155 93.6202 90.3299 93.6902 90.1906 93.7599C89.9117 93.8993 89.4915 94 89 94C88.5085 94 88.0883 93.8993 87.8094 93.7599C87.6701 93.6902 87.5845 93.6202 87.5389 93.5663C87.5171 93.5405 87.5074 93.522 87.5034 93.5122C87.5014 93.5073 87.5006 93.5042 87.5003 93.5027C87.5 93.5013 87.5 93.5005 87.5 93.5C87.5 93.4995 87.5 93.4987 87.5003 93.4973C87.5006 93.4958 87.5014 93.4927 87.5034 93.4878C87.5074 93.478 87.5171 93.4595 87.5389 93.4337C87.5845 93.3798 87.6701 93.3098 87.8094 93.2401C88.0883 93.1007 88.5085 93 89 93C89.4915 93 89.9117 93.1007 90.1906 93.2401C90.3299 93.3098 90.4155 93.3798 90.4611 93.4337C90.4829 93.4595 90.4926 93.478 90.4966 93.4878C90.4986 93.4927 90.4994 93.4958 90.4997 93.4973C90.5 93.4987 90.5 93.4995 90.5 93.5Z" stroke="#414549"/>
<path d="M61.5 52C61.5 52.3331 61.2975 52.6959 60.844 52.9982C60.394 53.2982 59.7435 53.5 59 53.5C58.2565 53.5 57.606 53.2982 57.156 52.9982C56.7025 52.6959 56.5 52.3331 56.5 52C56.5 51.6669 56.7025 51.3041 57.156 51.0018C57.606 50.7018 58.2565 50.5 59 50.5C59.7435 50.5 60.394 50.7018 60.844 51.0018C61.2975 51.3041 61.5 51.6669 61.5 52Z" stroke="#414549"/>
<path d="M101.5 87.5C101.5 87.987 101.225 88.475 100.684 88.8609C100.145 89.2461 99.3743 89.5 98.5 89.5C97.6257 89.5 96.855 89.2461 96.3157 88.8609C95.7755 88.475 95.5 87.987 95.5 87.5C95.5 87.013 95.7755 86.525 96.3157 86.1391C96.855 85.7539 97.6257 85.5 98.5 85.5C99.3743 85.5 100.145 85.7539 100.684 86.1391C101.225 86.525 101.5 87.013 101.5 87.5Z" stroke="#414549"/>
</svg>
